<svg width="1280" height="720" xmlns="http://www.w3.org/2000/svg" xmlns:xlink="http://www.w3.org/1999/xlink" overflow="hidden"><defs><clipPath id="clip0"><rect x="0" y="0" width="1280" height="720"/></clipPath></defs><g clip-path="url(#clip0)"><rect x="0" y="0" width="1280" height="720" fill="#FFFFFF"/><text font-family="Abel,Abel_MSFontService,sans-serif" font-weight="400" font-size="13" transform="translate(72.6582 375)">sources <tspan font-size="13" x="8.5" y="16">from </tspan><tspan font-size="13" x="-1.16667" y="32">the past</tspan></text><rect x="159" y="498" width="145" height="19" fill="#FFFFFF"/><path d="M719.5 267.295C719.5 259.676 725.676 253.5 733.295 253.5L829.705 253.5C837.324 253.5 843.5 259.676 843.5 267.295L843.5 271.705C843.5 279.324 837.324 285.5 829.705 285.5L733.295 285.5C725.676 285.5 719.5 279.324 719.5 271.705Z" stroke="#D9D9D9" stroke-width="1.33333" stroke-miterlimit="8" fill="none" fill-rule="evenodd"/><path d="M729 356 757.987 356 757.987 358 729 358ZM753.312 351.581 759.506 357 753.312 362.419C752.897 362.783 752.265 362.741 751.901 362.325 751.537 361.91 751.58 361.278 751.995 360.914L757.329 356.248 757.329 357.753 751.995 353.086C751.58 352.722 751.538 352.091 751.901 351.675 752.265 351.259 752.897 351.217 753.312 351.581Z" fill="#82CAEE"/><path d="M0.423713-0.905796 29.0128 12.4676 28.1654 14.2792-0.423713 0.905796ZM26.6508 6.48387 29.9646 14.0168 22.0584 16.3013C21.5278 16.4546 20.9734 16.1488 20.8201 15.6182 20.6668 15.0876 20.9727 14.5332 21.5032 14.3799L28.3115 12.4127 27.6737 13.776 24.8201 7.28919C24.5978 6.78366 24.8273 6.19357 25.3328 5.97118 25.8384 5.7488 26.4284 5.97833 26.6508 6.48387Z" fill="#82CAEE" transform="matrix(1 0 0 -1 721 349.017)"/><path d="M0.84167-0.539992 16.5608 23.961 14.8775 25.041-0.84167 0.539992ZM17.756 17.64 16.5392 25.7792 8.63357 23.4927C8.10303 23.3393 7.79733 22.7848 7.95078 22.2542 8.10422 21.7237 8.6587 21.418 9.18924 21.5715L15.997 23.5404 14.7302 24.3532 15.778 17.3443C15.8596 16.7981 16.3686 16.4215 16.9149 16.5031 17.4611 16.5848 17.8377 17.0938 17.756 17.64Z" fill="#82CAEE" transform="matrix(1 0 0 -1 712 341.78)"/><path d="M732.271 366.037 770.126 376.695 769.584 378.62 731.729 367.963ZM766.823 371.174 771.317 378.069 763.886 381.607C763.388 381.844 762.791 381.632 762.554 381.134 762.316 380.635 762.528 380.038 763.026 379.801L769.425 376.754 769.017 378.203 765.148 372.266C764.846 371.803 764.977 371.184 765.44 370.882 765.902 370.58 766.522 370.711 766.823 371.174Z" fill="#82CAEE"/><path d="M732.546 375.162 785.762 409.857 784.67 411.533 731.454 376.838ZM784.26 403.602 786.488 411.524 778.341 412.682C777.794 412.759 777.287 412.379 777.21 411.832 777.132 411.285 777.513 410.779 778.059 410.701L785.076 409.705 784.254 410.966 782.335 404.144C782.185 403.612 782.495 403.06 783.026 402.91 783.558 402.761 784.11 403.071 784.26 403.602Z" fill="#82CAEE"/><path d="M286 296.332 325.355 482.823 487 483 374.583 296 286 296.332Z" fill="#F2F2F2" fill-rule="evenodd"/><path d="M375.5 416C375.5 413.515 380.649 411.5 387 411.5 393.351 411.5 398.5 413.515 398.5 416L398.5 434C398.5 436.485 393.351 438.5 387 438.5 380.649 438.5 375.5 436.485 375.5 434Z" fill="#FFFFFF" fill-rule="evenodd"/><path d="M398.5 416C398.5 418.485 393.351 420.5 387 420.5 380.649 420.5 375.5 418.485 375.5 416" stroke="#000000" stroke-linejoin="round" stroke-miterlimit="10" fill="none" fill-rule="evenodd"/><path d="M375.5 416C375.5 413.515 380.649 411.5 387 411.5 393.351 411.5 398.5 413.515 398.5 416L398.5 434C398.5 436.485 393.351 438.5 387 438.5 380.649 438.5 375.5 436.485 375.5 434Z" stroke="#000000" stroke-linejoin="round" stroke-miterlimit="10" fill="none" fill-rule="evenodd"/><path d="M395.5 446.333C395.5 443.664 401.32 441.5 408.5 441.5 415.68 441.5 421.5 443.664 421.5 446.333L421.5 465.667C421.5 468.336 415.68 470.5 408.5 470.5 401.32 470.5 395.5 468.336 395.5 465.667Z" fill="#FFFFFF" fill-rule="evenodd"/><path d="M421.5 446.333C421.5 449.003 415.68 451.167 408.5 451.167 401.32 451.167 395.5 449.003 395.5 446.333" stroke="#000000" stroke-linejoin="round" stroke-miterlimit="10" fill="none" fill-rule="evenodd"/><path d="M395.5 446.333C395.5 443.664 401.32 441.5 408.5 441.5 415.68 441.5 421.5 443.664 421.5 446.333L421.5 465.667C421.5 468.336 415.68 470.5 408.5 470.5 401.32 470.5 395.5 468.336 395.5 465.667Z" stroke="#000000" stroke-linejoin="round" stroke-miterlimit="10" fill="none" fill-rule="evenodd"/><text fill="#666666" font-family="Abel,Abel_MSFontService,sans-serif" font-weight="400" font-size="12" transform="translate(405.107 463)">SI<tspan fill="#000000" font-size="13" x="-203.769" y="56">biographies &amp; </tspan><tspan fill="#000000" font-size="13" x="-196.016" y="72">(hi)stories </tspan></text><path d="M363.5 382C363.5 379.515 368.649 377.5 375 377.5 381.351 377.5 386.5 379.515 386.5 382L386.5 400C386.5 402.485 381.351 404.5 375 404.5 368.649 404.5 363.5 402.485 363.5 400Z" fill="#FFFFFF" fill-rule="evenodd"/><path d="M386.5 382C386.5 384.485 381.351 386.5 375 386.5 368.649 386.5 363.5 384.485 363.5 382" stroke="#000000" stroke-linejoin="round" stroke-miterlimit="10" fill="none" fill-rule="evenodd"/><path d="M363.5 382C363.5 379.515 368.649 377.5 375 377.5 381.351 377.5 386.5 379.515 386.5 382L386.5 400C386.5 402.485 381.351 404.5 375 404.5 368.649 404.5 363.5 402.485 363.5 400Z" stroke="#000000" stroke-linejoin="round" stroke-miterlimit="10" fill="none" fill-rule="evenodd"/><text fill="#666666" font-family="Abel,Abel_MSFontService,sans-serif" font-weight="400" font-size="11" transform="translate(368.919 399)">DE</text><path d="M454 381C454 376.582 467.431 373 484 373 500.569 373 514 376.582 514 381 514 385.418 500.569 389 484 389 467.431 389 454 385.418 454 381Z" fill="#DEEBF7" fill-rule="evenodd"/><path d="M469.5 360.333C469.5 357.664 476.44 355.5 485 355.5 493.56 355.5 500.5 357.664 500.5 360.333L500.5 379.667C500.5 382.336 493.56 384.5 485 384.5 476.44 384.5 469.5 382.336 469.5 379.667Z" fill="#FFFFFF" fill-rule="evenodd"/><path d="M500.5 360.333C500.5 363.003 493.56 365.167 485 365.167 476.44 365.167 469.5 363.003 469.5 360.333" stroke="#000000" stroke-linejoin="round" stroke-miterlimit="10" fill="none" fill-rule="evenodd"/><path d="M469.5 360.333C469.5 357.664 476.44 355.5 485 355.5 493.56 355.5 500.5 357.664 500.5 360.333L500.5 379.667C500.5 382.336 493.56 384.5 485 384.5 476.44 384.5 469.5 382.336 469.5 379.667Z" stroke="#000000" stroke-linejoin="round" stroke-miterlimit="10" fill="none" fill-rule="evenodd"/><path d="M322.5 384C322.5 381.515 327.873 379.5 334.5 379.5 341.127 379.5 346.5 381.515 346.5 384L346.5 402C346.5 404.485 341.127 406.5 334.5 406.5 327.873 406.5 322.5 404.485 322.5 402Z" fill="#FFFFFF" fill-rule="evenodd"/><path d="M346.5 384C346.5 386.485 341.127 388.5 334.5 388.5 327.873 388.5 322.5 386.485 322.5 384" stroke="#000000" stroke-linejoin="round" stroke-miterlimit="10" fill="none" fill-rule="evenodd"/><path d="M322.5 384C322.5 381.515 327.873 379.5 334.5 379.5 341.127 379.5 346.5 381.515 346.5 384L346.5 402C346.5 404.485 341.127 406.5 334.5 406.5 327.873 406.5 322.5 404.485 322.5 402Z" stroke="#000000" stroke-linejoin="round" stroke-miterlimit="10" fill="none" fill-rule="evenodd"/><path d="M336.5 417C336.5 414.515 341.873 412.5 348.5 412.5 355.127 412.5 360.5 414.515 360.5 417L360.5 435C360.5 437.485 355.127 439.5 348.5 439.5 341.873 439.5 336.5 437.485 336.5 435Z" fill="#FFFFFF" fill-rule="evenodd"/><path d="M360.5 417C360.5 419.485 355.127 421.5 348.5 421.5 341.873 421.5 336.5 419.485 336.5 417" stroke="#000000" stroke-linejoin="round" stroke-miterlimit="10" fill="none" fill-rule="evenodd"/><path d="M336.5 417C336.5 414.515 341.873 412.5 348.5 412.5 355.127 412.5 360.5 414.515 360.5 417L360.5 435C360.5 437.485 355.127 439.5 348.5 439.5 341.873 439.5 336.5 437.485 336.5 435Z" stroke="#000000" stroke-linejoin="round" stroke-miterlimit="10" fill="none" fill-rule="evenodd"/><text fill="#666666" font-family="Abel,Abel_MSFontService,sans-serif" font-weight="400" font-size="12" transform="translate(345.361 433)">FI</text><path d="M351.5 447.333C351.5 444.664 357.32 442.5 364.5 442.5 371.68 442.5 377.5 444.664 377.5 447.333L377.5 466.667C377.5 469.336 371.68 471.5 364.5 471.5 357.32 471.5 351.5 469.336 351.5 466.667Z" fill="#FFFFFF" fill-rule="evenodd"/><path d="M377.5 447.333C377.5 450.003 371.68 452.167 364.5 452.167 357.32 452.167 351.5 450.003 351.5 447.333" stroke="#000000" stroke-linejoin="round" stroke-miterlimit="10" fill="none" fill-rule="evenodd"/><path d="M351.5 447.333C351.5 444.664 357.32 442.5 364.5 442.5 371.68 442.5 377.5 444.664 377.5 447.333L377.5 466.667C377.5 469.336 371.68 471.5 364.5 471.5 357.32 471.5 351.5 469.336 351.5 466.667Z" stroke="#000000" stroke-linejoin="round" stroke-miterlimit="10" fill="none" fill-rule="evenodd"/><path d="M396.31 347.226 438.984 364.313 438.364 365.86 395.69 348.774ZM435.634 359.518 440.134 365.671 432.631 367.019C432.178 367.1 431.745 366.799 431.663 366.346 431.582 365.893 431.883 365.46 432.336 365.379L438.527 364.267 438.001 365.579 434.289 360.502C434.017 360.13 434.098 359.609 434.47 359.337 434.841 359.065 435.363 359.146 435.634 359.518Z" fill="#81CFFF"/><path d="M0.622416-0.554115 38.6567 42.1683 37.4119 43.2766-0.622416 0.554115ZM37.7992 36.3826 39.0799 43.8969 31.7643 41.7553C31.3226 41.626 31.0693 41.1631 31.1986 40.7214 31.3279 40.2797 31.7908 40.0265 32.2325 40.1558L38.2685 41.9228 37.2129 42.8626 36.1562 36.6626C36.0789 36.209 36.384 35.7785 36.8377 35.7012 37.2914 35.6238 37.7219 35.9289 37.7992 36.3826Z" fill="#81CFFF" transform="matrix(1 -1.22465e-16 -1.22465e-16 -1 427 442.893)"/><path d="M0.392697-0.735006 29.9099 15.0354 29.1245 16.5054-0.392697 0.735006ZM27.1065 9.90195 30.904 16.5113 23.2989 17.0286C22.8397 17.0598 22.4422 16.7129 22.411 16.2537 22.3797 15.7945 22.7266 15.397 23.1858 15.3657L29.4606 14.939 28.7946 16.1855 25.6614 10.7323C25.4321 10.3332 25.5697 9.82383 25.9688 9.59455 26.3678 9.36526 26.8772 9.50289 27.1065 9.90195Z" fill="#81CFFF" transform="matrix(1 0 0 -1 421 410.509)"/><path d="M0.145654-0.820506 32.3304 4.89286 32.0391 6.53387-0.145654 0.820506ZM28.0746 0.880563 33.7329 5.98818 26.6623 8.83618C26.2354 9.00814 25.7499 8.80146 25.578 8.37455 25.406 7.94764 25.6127 7.46217 26.0396 7.29021L31.8734 4.94038 31.6264 6.33195 26.9578 2.11774C26.6162 1.80936 26.5892 1.28241 26.8976 0.940772 27.206 0.599134 27.7329 0.572177 28.0746 0.880563Z" fill="#81CFFF" transform="matrix(1 0 0 -1 412 391.987)"/><path d="M390.395 329.266 444.05 358.119 443.261 359.587 389.605 330.734ZM441.261 352.978 445.04 359.598 437.434 360.095C436.975 360.125 436.578 359.777 436.548 359.318 436.518 358.858 436.866 358.462 437.325 358.432L443.601 358.022 442.932 359.267 439.813 353.805C439.585 353.405 439.724 352.896 440.124 352.668 440.524 352.44 441.033 352.579 441.261 352.978Z" fill="#81CFFF"/><path d="M399.152 366.181 439.384 373.629 439.081 375.268 398.848 367.819ZM435.158 369.586 440.778 374.735 433.687 377.531C433.259 377.699 432.775 377.489 432.606 377.061 432.437 376.633 432.647 376.149 433.076 375.98L438.927 373.673 438.669 375.063 434.032 370.814C433.693 370.504 433.669 369.976 433.98 369.637 434.291 369.298 434.818 369.275 435.158 369.586Z" fill="#81CFFF"/><text font-family="Abel,Abel_MSFontService,sans-serif" font-weight="400" font-size="13" transform="translate(173.233 240)">material object <tspan font-size="13" x="10.42" y="16">collections</tspan></text><path d="M307.5 313.333C307.5 311.216 312.201 309.5 318 309.5 323.799 309.5 328.5 311.216 328.5 313.333L328.5 328.667C328.5 330.784 323.799 332.5 318 332.5 312.201 332.5 307.5 330.784 307.5 328.667Z" fill="#FFFFFF" fill-rule="evenodd"/><path d="M328.5 313.333C328.5 315.451 323.799 317.167 318 317.167 312.201 317.167 307.5 315.451 307.5 313.333" stroke="#000000" stroke-linejoin="round" stroke-miterlimit="10" fill="none" fill-rule="evenodd"/><path d="M307.5 313.333C307.5 311.216 312.201 309.5 318 309.5 323.799 309.5 328.5 311.216 328.5 313.333L328.5 328.667C328.5 330.784 323.799 332.5 318 332.5 312.201 332.5 307.5 330.784 307.5 328.667Z" stroke="#000000" stroke-linejoin="round" stroke-miterlimit="10" fill="none" fill-rule="evenodd"/><path d="M338.5 304.5C338.5 301.739 344.544 299.5 352 299.5 359.456 299.5 365.5 301.739 365.5 304.5L365.5 324.5C365.5 327.261 359.456 329.5 352 329.5 344.544 329.5 338.5 327.261 338.5 324.5Z" fill="#FFFFFF" fill-rule="evenodd"/><path d="M365.5 304.5C365.5 307.261 359.456 309.5 352 309.5 344.544 309.5 338.5 307.261 338.5 304.5" stroke="#000000" stroke-linejoin="round" stroke-miterlimit="10" fill="none" fill-rule="evenodd"/><path d="M338.5 304.5C338.5 301.739 344.544 299.5 352 299.5 359.456 299.5 365.5 301.739 365.5 304.5L365.5 324.5C365.5 327.261 359.456 329.5 352 329.5 344.544 329.5 338.5 327.261 338.5 324.5Z" stroke="#000000" stroke-linejoin="round" stroke-miterlimit="10" fill="none" fill-rule="evenodd"/><path d="M313.5 334.833C313.5 332.44 318.649 330.5 325 330.5 331.351 330.5 336.5 332.44 336.5 334.833L336.5 352.167C336.5 354.56 331.351 356.5 325 356.5 318.649 356.5 313.5 354.56 313.5 352.167Z" fill="#FFFFFF" fill-rule="evenodd"/><path d="M336.5 334.833C336.5 337.227 331.351 339.167 325 339.167 318.649 339.167 313.5 337.227 313.5 334.833" stroke="#000000" stroke-linejoin="round" stroke-miterlimit="10" fill="none" fill-rule="evenodd"/><path d="M313.5 334.833C313.5 332.44 318.649 330.5 325 330.5 331.351 330.5 336.5 332.44 336.5 334.833L336.5 352.167C336.5 354.56 331.351 356.5 325 356.5 318.649 356.5 313.5 354.56 313.5 352.167Z" stroke="#000000" stroke-linejoin="round" stroke-miterlimit="10" fill="none" fill-rule="evenodd"/><text fill="#434343" font-family="Abel,Abel_MSFontService,sans-serif" font-weight="400" font-size="9" transform="translate(344.74 341)">Europeana</text><path d="M220.643 424.021 247.493 432.007 247.208 432.966 220.357 424.979ZM247.213 428.272 253.741 434.387 244.932 435.94Z" fill="#999999"/><path d="M214.474 404.5 213.5 400.349 213.508 385.5 243.002 385.513 244.5 388.664" stroke="#999999" stroke-linejoin="round" stroke-miterlimit="10" fill="#FFFFFF" fill-rule="evenodd"/><rect x="214.5" y="388.5" width="30" height="16" stroke="#666666" stroke-linejoin="round" stroke-miterlimit="10" fill="#D9D9D9"/><path d="M220.5 388.5 220.5 403.808" stroke="#999999" stroke-linejoin="round" stroke-miterlimit="10" fill="none" fill-rule="evenodd"/><path d="M226.5 388.5 226.5 403.808" stroke="#999999" stroke-linejoin="round" stroke-miterlimit="10" fill="none" fill-rule="evenodd"/><path d="M232.5 388.5 232.5 403.808" stroke="#999999" stroke-linejoin="round" stroke-miterlimit="10" fill="none" fill-rule="evenodd"/><path d="M239.5 388.5 239.5 403.808" stroke="#999999" stroke-linejoin="round" stroke-miterlimit="10" fill="none" fill-rule="evenodd"/><path d="M214.5 392.5 244.46 392.5" stroke="#999999" stroke-linejoin="round" stroke-miterlimit="10" fill="none" fill-rule="evenodd"/><path d="M214.5 395.5 244.46 395.5" stroke="#999999" stroke-linejoin="round" stroke-miterlimit="10" fill="none" fill-rule="evenodd"/><path d="M214.5 399.5 244.46 399.5" stroke="#999999" stroke-linejoin="round" stroke-miterlimit="10" fill="none" fill-rule="evenodd"/><path d="M213.5 385.5 214.403 388.359" stroke="#666666" stroke-linejoin="round" stroke-miterlimit="10" fill="none" fill-rule="evenodd"/><path d="M216.474 417.5 215.5 413.568 215.508 399.5 245.002 399.512 246.5 402.497" stroke="#999999" stroke-linejoin="round" stroke-miterlimit="10" fill="#FFFFFF" fill-rule="evenodd"/><rect x="216.5" y="402.5" width="30" height="15" stroke="#666666" stroke-linejoin="round" stroke-miterlimit="10" fill="#E2E2E2"/><path d="M222.5 402.5 222.5 417.613" stroke="#999999" stroke-linejoin="round" stroke-miterlimit="10" fill="none" fill-rule="evenodd"/><path d="M228.5 402.5 228.5 417.613" stroke="#999999" stroke-linejoin="round" stroke-miterlimit="10" fill="none" fill-rule="evenodd"/><path d="M234.5 402.5 234.5 417.613" stroke="#999999" stroke-linejoin="round" stroke-miterlimit="10" fill="none" fill-rule="evenodd"/><path d="M241.5 402.5 241.5 417.613" stroke="#999999" stroke-linejoin="round" stroke-miterlimit="10" fill="none" fill-rule="evenodd"/><path d="M217.5 406.5 247.077 406.5" stroke="#999999" stroke-linejoin="round" stroke-miterlimit="10" fill="none" fill-rule="evenodd"/><path d="M217.5 409.5 247.077 409.5" stroke="#999999" stroke-linejoin="round" stroke-miterlimit="10" fill="none" fill-rule="evenodd"/><path d="M217.5 413.5 247.077 413.5" stroke="#999999" stroke-linejoin="round" stroke-miterlimit="10" fill="none" fill-rule="evenodd"/><path d="M215.5 399.5 216.392 402.323" stroke="#666666" stroke-linejoin="round" stroke-miterlimit="10" fill="none" fill-rule="evenodd"/><path d="M217.537 432.5 216.5 428.131 216.509 412.5 247.906 412.513 249.5 415.83" stroke="#999999" stroke-linejoin="round" stroke-miterlimit="10" fill="#FFFFFF" fill-rule="evenodd"/><rect x="217.5" y="416.5" width="32" height="16" stroke="#666666" stroke-linejoin="round" stroke-miterlimit="10" fill="#ECECEC"/><path d="M223.5 416.5 223.5 432.759" stroke="#999999" stroke-linejoin="round" stroke-miterlimit="10" fill="none" fill-rule="evenodd"/><path d="M230.5 416.5 230.5 432.759" stroke="#999999" stroke-linejoin="round" stroke-miterlimit="10" fill="none" fill-rule="evenodd"/><path d="M236.5 416.5 236.5 432.759" stroke="#999999" stroke-linejoin="round" stroke-miterlimit="10" fill="none" fill-rule="evenodd"/><path d="M243.5 416.5 243.5 432.759" stroke="#999999" stroke-linejoin="round" stroke-miterlimit="10" fill="none" fill-rule="evenodd"/><path d="M217.5 420.5 249.329 420.5" stroke="#999999" stroke-linejoin="round" stroke-miterlimit="10" fill="none" fill-rule="evenodd"/><path d="M217.5 423.5 249.329 423.5" stroke="#999999" stroke-linejoin="round" stroke-miterlimit="10" fill="none" fill-rule="evenodd"/><path d="M217.5 428.5 249.329 428.5" stroke="#999999" stroke-linejoin="round" stroke-miterlimit="10" fill="none" fill-rule="evenodd"/><path d="M216.5 412.5 217.459 415.537" stroke="#666666" stroke-linejoin="round" stroke-miterlimit="10" fill="none" fill-rule="evenodd"/><path d="M218.568 446.5 217.5 442.349 217.509 427.5 249.857 427.513 251.5 430.664" stroke="#999999" stroke-linejoin="round" stroke-miterlimit="10" fill="#FFFFFF" fill-rule="evenodd"/><rect x="219.5" y="430.5" width="32" height="16" stroke="#666666" stroke-linejoin="round" stroke-miterlimit="10" fill="#F3F3F3"/><path d="M225.5 430.5 225.5 446.759" stroke="#999999" stroke-linejoin="round" stroke-miterlimit="10" fill="none" fill-rule="evenodd"/><path d="M232.5 430.5 232.5 446.759" stroke="#999999" stroke-linejoin="round" stroke-miterlimit="10" fill="none" fill-rule="evenodd"/><path d="M238.5 430.5 238.5 446.759" stroke="#999999" stroke-linejoin="round" stroke-miterlimit="10" fill="none" fill-rule="evenodd"/><path d="M245.5 430.5 245.5 446.759" stroke="#999999" stroke-linejoin="round" stroke-miterlimit="10" fill="none" fill-rule="evenodd"/><path d="M219.5 434.5 251.329 434.5" stroke="#999999" stroke-linejoin="round" stroke-miterlimit="10" fill="none" fill-rule="evenodd"/><path d="M219.5 438.5 251.329 438.5" stroke="#999999" stroke-linejoin="round" stroke-miterlimit="10" fill="none" fill-rule="evenodd"/><path d="M219.5 442.5 251.329 442.5" stroke="#999999" stroke-linejoin="round" stroke-miterlimit="10" fill="none" fill-rule="evenodd"/><path d="M217.5 427.5 218.459 430.537" stroke="#666666" stroke-linejoin="round" stroke-miterlimit="10" fill="none" fill-rule="evenodd"/><path d="M220.631 463.5 219.5 458.912 219.51 442.5 253.761 442.514 255.5 445.997" stroke="#999999" stroke-linejoin="round" stroke-miterlimit="10" fill="#FFFFFF" fill-rule="evenodd"/><rect x="220.5" y="445.5" width="35" height="18" stroke="#666666" stroke-linejoin="round" stroke-miterlimit="10" fill="#FFFFFF"/><path d="M227.5 445.5 227.5 463.413" stroke="#999999" stroke-linejoin="round" stroke-miterlimit="10" fill="none" fill-rule="evenodd"/><path d="M234.5 445.5 234.5 463.413" stroke="#999999" stroke-linejoin="round" stroke-miterlimit="10" fill="none" fill-rule="evenodd"/><path d="M241.5 445.5 241.5 463.413" stroke="#999999" stroke-linejoin="round" stroke-miterlimit="10" fill="none" fill-rule="evenodd"/><path d="M249.5 445.5 249.5 463.413" stroke="#999999" stroke-linejoin="round" stroke-miterlimit="10" fill="none" fill-rule="evenodd"/><path d="M220.5 450.5 255.56 450.5" stroke="#999999" stroke-linejoin="round" stroke-miterlimit="10" fill="none" fill-rule="evenodd"/><path d="M220.5 454.5 255.56 454.5" stroke="#999999" stroke-linejoin="round" stroke-miterlimit="10" fill="none" fill-rule="evenodd"/><path d="M220.5 458.5 255.56 458.5" stroke="#999999" stroke-linejoin="round" stroke-miterlimit="10" fill="none" fill-rule="evenodd"/><path d="M219.5 442.5 220.557 445.845" stroke="#666666" stroke-linejoin="round" stroke-miterlimit="10" fill="none" fill-rule="evenodd"/><path d="M204.317 311.5 203.5 308.223 203.507 296.5 228.244 296.51 229.5 298.998" stroke="#999999" stroke-linejoin="round" stroke-miterlimit="10" fill="#FFFFFF" fill-rule="evenodd"/><rect x="204.5" y="298.5" width="25" height="13" stroke="#666666" stroke-linejoin="round" stroke-miterlimit="10" fill="#D9D9D9"/><path d="M209.5 298.5 209.5 311.094" stroke="#999999" stroke-linejoin="round" stroke-miterlimit="10" fill="none" fill-rule="evenodd"/><path d="M214.5 298.5 214.5 311.094" stroke="#999999" stroke-linejoin="round" stroke-miterlimit="10" fill="none" fill-rule="evenodd"/><path d="M219.5 298.5 219.5 311.094" stroke="#999999" stroke-linejoin="round" stroke-miterlimit="10" fill="none" fill-rule="evenodd"/><path d="M224.5 298.5 224.5 311.094" stroke="#999999" stroke-linejoin="round" stroke-miterlimit="10" fill="none" fill-rule="evenodd"/><path d="M204.5 302.5 229.148 302.5" stroke="#999999" stroke-linejoin="round" stroke-miterlimit="10" fill="none" fill-rule="evenodd"/><path d="M204.5 304.5 229.148 304.5" stroke="#999999" stroke-linejoin="round" stroke-miterlimit="10" fill="none" fill-rule="evenodd"/><path d="M204.5 307.5 229.148 307.5" stroke="#999999" stroke-linejoin="round" stroke-miterlimit="10" fill="none" fill-rule="evenodd"/><path d="M203.5 296.5 204.243 298.852" stroke="#666666" stroke-linejoin="round" stroke-miterlimit="10" fill="none" fill-rule="evenodd"/><path d="M206.285 322.5 205.5 319.223 205.507 307.5 229.292 307.51 230.5 309.998" stroke="#999999" stroke-linejoin="round" stroke-miterlimit="10" fill="#FFFFFF" fill-rule="evenodd"/><rect x="206.5" y="309.5" width="24" height="13" stroke="#666666" stroke-linejoin="round" stroke-miterlimit="10" fill="#E2E2E2"/><path d="M211.5 310.5 211.5 322.933" stroke="#999999" stroke-linejoin="round" stroke-miterlimit="10" fill="none" fill-rule="evenodd"/><path d="M216.5 310.5 216.5 322.933" stroke="#999999" stroke-linejoin="round" stroke-miterlimit="10" fill="none" fill-rule="evenodd"/><path d="M221.5 310.5 221.5 322.933" stroke="#999999" stroke-linejoin="round" stroke-miterlimit="10" fill="none" fill-rule="evenodd"/><path d="M226.5 310.5 226.5 322.933" stroke="#999999" stroke-linejoin="round" stroke-miterlimit="10" fill="none" fill-rule="evenodd"/><path d="M206.5 313.5 230.833 313.5" stroke="#999999" stroke-linejoin="round" stroke-miterlimit="10" fill="none" fill-rule="evenodd"/><path d="M206.5 315.5 230.833 315.5" stroke="#999999" stroke-linejoin="round" stroke-miterlimit="10" fill="none" fill-rule="evenodd"/><path d="M206.5 319.5 230.833 319.5" stroke="#999999" stroke-linejoin="round" stroke-miterlimit="10" fill="none" fill-rule="evenodd"/><path d="M205.5 307.5 206.233 309.822" stroke="#666666" stroke-linejoin="round" stroke-miterlimit="10" fill="none" fill-rule="evenodd"/><path d="M207.348 335.5 206.5 331.786 206.507 318.5 232.195 318.511 233.5 321.331" stroke="#999999" stroke-linejoin="round" stroke-miterlimit="10" fill="#FFFFFF" fill-rule="evenodd"/><rect x="206.5" y="321.5" width="27" height="13" stroke="#666666" stroke-linejoin="round" stroke-miterlimit="10" fill="#ECECEC"/><path d="M211.5 321.5 211.5 334.876" stroke="#999999" stroke-linejoin="round" stroke-miterlimit="10" fill="none" fill-rule="evenodd"/><path d="M217.5 321.5 217.5 334.876" stroke="#999999" stroke-linejoin="round" stroke-miterlimit="10" fill="none" fill-rule="evenodd"/><path d="M222.5 321.5 222.5 334.876" stroke="#999999" stroke-linejoin="round" stroke-miterlimit="10" fill="none" fill-rule="evenodd"/><path d="M228.5 321.5 228.5 334.876" stroke="#999999" stroke-linejoin="round" stroke-miterlimit="10" fill="none" fill-rule="evenodd"/><path d="M207.5 324.5 233.686 324.5" stroke="#999999" stroke-linejoin="round" stroke-miterlimit="10" fill="none" fill-rule="evenodd"/><path d="M207.5 327.5 233.686 327.5" stroke="#999999" stroke-linejoin="round" stroke-miterlimit="10" fill="none" fill-rule="evenodd"/><path d="M207.5 331.5 233.686 331.5" stroke="#999999" stroke-linejoin="round" stroke-miterlimit="10" fill="none" fill-rule="evenodd"/><path d="M206.5 318.5 207.289 320.998" stroke="#666666" stroke-linejoin="round" stroke-miterlimit="10" fill="none" fill-rule="evenodd"/><path d="M208.348 346.5 207.5 343.005 207.507 330.5 233.195 330.511 234.5 333.164" stroke="#999999" stroke-linejoin="round" stroke-miterlimit="10" fill="#FFFFFF" fill-rule="evenodd"/><rect x="208.5" y="332.5" width="26" height="14" stroke="#666666" stroke-linejoin="round" stroke-miterlimit="10" fill="#F3F3F3"/><path d="M213.5 333.5 213.5 346.876" stroke="#999999" stroke-linejoin="round" stroke-miterlimit="10" fill="none" fill-rule="evenodd"/><path d="M218.5 333.5 218.5 346.876" stroke="#999999" stroke-linejoin="round" stroke-miterlimit="10" fill="none" fill-rule="evenodd"/><path d="M224.5 333.5 224.5 346.876" stroke="#999999" stroke-linejoin="round" stroke-miterlimit="10" fill="none" fill-rule="evenodd"/><path d="M229.5 333.5 229.5 346.876" stroke="#999999" stroke-linejoin="round" stroke-miterlimit="10" fill="none" fill-rule="evenodd"/><path d="M208.5 336.5 234.686 336.5" stroke="#999999" stroke-linejoin="round" stroke-miterlimit="10" fill="none" fill-rule="evenodd"/><path d="M208.5 339.5 234.686 339.5" stroke="#999999" stroke-linejoin="round" stroke-miterlimit="10" fill="none" fill-rule="evenodd"/><path d="M208.5 342.5 234.686 342.5" stroke="#999999" stroke-linejoin="round" stroke-miterlimit="10" fill="none" fill-rule="evenodd"/><path d="M207.5 330.5 208.289 332.998" stroke="#666666" stroke-linejoin="round" stroke-miterlimit="10" fill="none" fill-rule="evenodd"/><path d="M209.442 360.5 208.5 356.568 208.508 342.5 237.051 342.512 238.5 345.497" stroke="#999999" stroke-linejoin="round" stroke-miterlimit="10" fill="#FFFFFF" fill-rule="evenodd"/><rect x="209.5" y="345.5" width="29" height="15" stroke="#666666" stroke-linejoin="round" stroke-miterlimit="10" fill="#FFFFFF"/><path d="M214.5 345.5 214.5 360.237" stroke="#999999" stroke-linejoin="round" stroke-miterlimit="10" fill="none" fill-rule="evenodd"/><path d="M220.5 345.5 220.5 360.237" stroke="#999999" stroke-linejoin="round" stroke-miterlimit="10" fill="none" fill-rule="evenodd"/><path d="M226.5 345.5 226.5 360.237" stroke="#999999" stroke-linejoin="round" stroke-miterlimit="10" fill="none" fill-rule="evenodd"/><path d="M232.5 345.5 232.5 360.237" stroke="#999999" stroke-linejoin="round" stroke-miterlimit="10" fill="none" fill-rule="evenodd"/><path d="M209.5 349.5 238.344 349.5" stroke="#999999" stroke-linejoin="round" stroke-miterlimit="10" fill="none" fill-rule="evenodd"/><path d="M209.5 352.5 238.344 352.5" stroke="#999999" stroke-linejoin="round" stroke-miterlimit="10" fill="none" fill-rule="evenodd"/><path d="M209.5 356.5 238.344 356.5" stroke="#999999" stroke-linejoin="round" stroke-miterlimit="10" fill="none" fill-rule="evenodd"/><path d="M208.5 342.5 209.369 345.252" stroke="#666666" stroke-linejoin="round" stroke-miterlimit="10" fill="none" fill-rule="evenodd"/><path d="M194 301 199.029 368 248 368 237.676 301.788 232.647 301.788" stroke="#D0F381" stroke-width="2.33333" stroke-miterlimit="8" fill="none" fill-rule="evenodd"/><path d="M0 0 4.98121 0.000104987" stroke="#D0F381" stroke-width="2.33333" stroke-miterlimit="8" fill="none" fill-rule="evenodd" transform="matrix(-1 0 0 1 198.981 300)"/><path d="M209.247 393.317 204 393.317 209.903 471 265 471 250.734 392 245.978 392" stroke="#00B050" stroke-width="2.33333" stroke-miterlimit="8" fill="none" fill-rule="evenodd"/><path d="M235 315 250.883 315" stroke="#FFFFFF" stroke-width="6.33333" stroke-miterlimit="8" fill="none" fill-rule="evenodd"/><path d="M237.5 314.833 273.792 314.833 273.792 316.167 237.5 316.167ZM268.898 310.332 274.804 315.5 268.898 320.669C268.621 320.911 268.199 320.883 267.957 320.606 267.714 320.329 267.743 319.908 268.02 319.665L273.353 314.998 273.353 316.002 268.02 311.335C267.743 311.093 267.715 310.672 267.957 310.394 268.199 310.117 268.621 310.089 268.898 310.332Z" fill="#82CAEE"/><path d="M239 331 254.883 331" stroke="#FFFFFF" stroke-width="6.33333" stroke-miterlimit="8" fill="none" fill-rule="evenodd"/><path d="M241.5 330.833 277.792 330.833 277.792 332.167 241.5 332.167ZM272.898 326.332 278.804 331.5 272.898 336.669C272.621 336.911 272.199 336.883 271.957 336.606 271.714 336.329 271.743 335.908 272.02 335.665L277.353 330.998 277.353 332.002 272.02 327.335C271.743 327.093 271.715 326.672 271.957 326.394 272.199 326.117 272.621 326.089 272.898 326.332Z" fill="#82CAEE"/><path d="M242 347 257.883 347" stroke="#FFFFFF" stroke-width="6.33333" stroke-miterlimit="8" fill="none" fill-rule="evenodd"/><path d="M244.5 346.833 280.792 346.833 280.792 348.167 244.5 348.167ZM275.898 342.332 281.804 347.5 275.898 352.669C275.621 352.911 275.199 352.883 274.957 352.606 274.714 352.329 274.743 351.908 275.02 351.665L280.353 346.998 280.353 348.002 275.02 343.335C274.743 343.093 274.715 342.672 274.957 342.394 275.199 342.117 275.621 342.089 275.898 342.332Z" fill="#82CAEE"/><path d="M252 414 267.883 414" stroke="#FFFFFF" stroke-width="6.33333" stroke-miterlimit="8" fill="none" fill-rule="evenodd"/><path d="M254.5 413.833 295 413.833 295 415.167 254.5 415.167ZM290.106 409.332 296.012 414.5 290.106 419.669C289.829 419.911 289.407 419.883 289.165 419.606 288.922 419.329 288.951 418.908 289.228 418.665L294.561 413.998 294.561 415.002 289.228 410.335C288.951 410.093 288.922 409.672 289.165 409.394 289.407 409.117 289.829 409.089 290.106 409.332Z" fill="#82CAEE"/><path d="M255 430 270.883 430" stroke="#FFFFFF" stroke-width="6.33333" stroke-miterlimit="8" fill="none" fill-rule="evenodd"/><path d="M257.5 429.833 299.58 429.833 299.58 431.167 257.5 431.167ZM294.685 425.332 300.592 430.5 294.685 435.669C294.408 435.911 293.987 435.883 293.745 435.606 293.502 435.329 293.53 434.908 293.807 434.665L299.141 429.998 299.141 431.002 293.807 426.335C293.53 426.093 293.502 425.672 293.745 425.394 293.987 425.117 294.408 425.089 294.685 425.332Z" fill="#82CAEE"/><path d="M259 446 274.883 446" stroke="#FFFFFF" stroke-width="6.33333" stroke-miterlimit="8" fill="none" fill-rule="evenodd"/><path d="M261.5 445.833 306.584 445.833 306.584 447.167 261.5 447.167ZM301.69 441.332 307.597 446.5 301.69 451.669C301.413 451.911 300.992 451.883 300.749 451.606 300.507 451.329 300.535 450.908 300.812 450.665L306.145 445.998 306.145 447.002 300.812 442.335C300.535 442.093 300.507 441.672 300.749 441.394 300.992 441.117 301.413 441.089 301.69 441.332Z" fill="#82CAEE"/><text font-family="Abel,Abel_MSFontService,sans-serif" font-weight="400" font-size="13" transform="translate(360.089 517)">digital national <tspan font-size="13" x="0" y="16">biography DBs</tspan><tspan font-size="13" x="-54.1473" y="-276">digital object </tspan><tspan font-size="13" x="-48.1473" y="-260">databases</tspan><tspan font-size="13" x="124.948" y="-100">InTaVia </tspan><tspan font-size="13" x="106.948" y="-84">knowledge graph</tspan><tspan font-size="13" x="473.544" y="-1">multiple types of </tspan><tspan font-size="13" x="469.791" y="15">cognition &amp; action</tspan></text><path d="M623.5 332.5C623.5 325.873 628.649 320.5 635 320.5 641.351 320.5 646.5 325.873 646.5 332.5 646.5 339.127 641.351 344.5 635 344.5 628.649 344.5 623.5 339.127 623.5 332.5Z" stroke="#A6A6A6" stroke-linejoin="round" stroke-miterlimit="10" fill="#FFFFFF" fill-rule="evenodd"/><path d="M0 0 0.0464042 2.98352" stroke="#A6A6A6" stroke-linejoin="round" stroke-miterlimit="10" fill="none" fill-rule="evenodd" transform="matrix(-1 0 0 1 632.546 330.5)"/><path d="M627.5 334.314 627.5 331.5" stroke="#A6A6A6" stroke-linejoin="round" stroke-miterlimit="10" fill="none" fill-rule="evenodd"/><path d="M651 358.542 649.06 354.907 646.635 353.212 642.756 352 637.422 352 634.027 353.212 630.875 357.33 629.878 361.006 626.996 364.599 622 369.254 630.3 371 633.359 364.451 637.292 361.833 642.534 360.086 647.777 359.65" fill="#FFFFFF" fill-rule="evenodd"/><path d="M599.704 371.384C600.596 367.907 604.139 365.812 607.616 366.704 609.921 367.296 611.719 369.1 612.302 371.407Z" stroke="#A6A6A6" stroke-linejoin="round" stroke-miterlimit="10" fill="#BDD7EE" fill-rule="evenodd"/><path d="M651.5 359.143 649.531 355.452 647.069 353.731 643.131 352.5 637.715 352.5 634.269 353.731 631.07 357.912 630.057 361.644 627.131 365.292 624.177 368.736 616.272 370.5 614.057 367.303 610.364 364.596 606.207 364.555 603.5 366.031" stroke="#A6A6A6" stroke-linejoin="round" stroke-miterlimit="10" fill="none" fill-rule="evenodd"/><path d="M644.5 352C644.5 345.649 649.873 340.5 656.5 340.5 663.128 340.5 668.5 345.649 668.5 352 668.5 358.351 663.128 363.5 656.5 363.5 649.873 363.5 644.5 358.351 644.5 352Z" stroke="#7F7F7F" stroke-linejoin="round" stroke-miterlimit="10" fill="#FFFFFF" fill-rule="evenodd"/><path d="M0 0 0.0464042 2.98352" stroke="#7F7F7F" stroke-linejoin="round" stroke-miterlimit="10" fill="none" fill-rule="evenodd" transform="matrix(-1 0 0 1 654.546 350.5)"/><path d="M651.5 353.314 651.5 350.5" stroke="#7F7F7F" stroke-linejoin="round" stroke-miterlimit="10" fill="none" fill-rule="evenodd"/><path d="M673.5 378.387 671.493 374.561 668.985 372.776 664.972 371.5 659.453 371.5 655.942 372.776 652.682 377.111 651.649 380.98 648.668 384.762 643.5 389.662 652.086 391.5 655.25 384.607 659.319 381.85 664.743 380.012 670.166 379.553" stroke="#FFFFFF" stroke-linejoin="round" stroke-miterlimit="10" fill="#FFFFFF" fill-rule="evenodd"/><path d="M621.704 391.384C622.596 387.907 626.139 385.812 629.616 386.704 631.921 387.296 633.719 389.1 634.302 391.407Z" stroke="#A6A6A6" stroke-linejoin="round" stroke-miterlimit="10" fill="#BDD7EE" fill-rule="evenodd"/><path d="M673.5 378.143 671.531 374.452 669.069 372.731 665.131 371.5 659.715 371.5 656.269 372.731 653.07 376.912 652.057 380.644 649.131 384.292 646.177 387.736 638.272 389.5 636.057 386.303 632.364 383.596 628.207 383.555 625.5 385.031" stroke="#7F7F7F" stroke-linejoin="round" stroke-miterlimit="10" fill="#FFFFFF" fill-rule="evenodd"/><path d="M669.5 378C669.5 371.649 674.649 366.5 681 366.5 687.351 366.5 692.5 371.649 692.5 378 692.5 384.351 687.351 389.5 681 389.5 674.649 389.5 669.5 384.351 669.5 378Z" stroke="#7F7F7F" stroke-linejoin="round" stroke-miterlimit="10" fill="#FFFFFF" fill-rule="evenodd"/><path d="M0 0 0.0464042 2.98352" stroke="#000000" stroke-linejoin="round" stroke-miterlimit="10" fill="none" fill-rule="evenodd" transform="matrix(-1 0 0 1 679.546 376.5)"/><path d="M675.5 379.314 675.5 376.5" stroke="#000000" stroke-linejoin="round" stroke-miterlimit="10" fill="none" fill-rule="evenodd"/><path d="M697 403.542 695.06 399.907 692.635 398.212 688.756 397 683.422 397 680.027 398.212 676.875 402.33 675.878 406.006 672.996 409.599 668 414.254 676.3 416 679.359 409.451 683.292 406.833 688.534 405.086 693.777 404.65" fill="#FFFFFF" fill-rule="evenodd"/><path d="M646.704 417.384C647.596 413.907 651.139 411.812 654.616 412.704 656.921 413.296 658.719 415.1 659.302 417.407Z" stroke="#595959" stroke-linejoin="round" stroke-miterlimit="10" fill="#BDD7EE" fill-rule="evenodd"/><path d="M697.5 404.143 695.531 400.452 693.069 398.731 689.131 397.5 683.715 397.5 680.269 398.731 677.07 402.912 676.057 406.644 673.131 410.292 670.177 413.736 662.272 415.5 660.057 412.303 656.364 409.596 652.207 409.555 649.5 411.031" stroke="#7F7F7F" stroke-linejoin="round" stroke-miterlimit="10" fill="none" fill-rule="evenodd"/><path d="M12.9741 10.3946 16 8.06111 14.4877 6.36404 14.0552 2.75775 9.51432 0 4.75716 0 1.08117 2.75775 0 7.00044 0.864938 10.6067 1.29741 14.0009 1.72988 21 5.18963 15.2737 5.6221 17.6058 7.13574 12.5159 6.70327 8.06111 9.73055 9.54606Z" stroke="#7F7F7F" stroke-linejoin="round" stroke-miterlimit="10" fill="#FFFFFF" fill-rule="evenodd" transform="matrix(-1 0 0 1 703.5 357.5)"/><path d="M625.5 333C625.5 331.067 626.396 329.5 627.5 329.5 628.605 329.5 629.5 331.067 629.5 333 629.5 334.933 628.605 336.5 627.5 336.5 626.396 336.5 625.5 334.933 625.5 333Z" stroke="#A6A6A6" stroke-linejoin="round" stroke-miterlimit="10" fill="none" fill-rule="evenodd"/><path d="M631.5 333C631.5 331.067 632.396 329.5 633.5 329.5 634.605 329.5 635.5 331.067 635.5 333 635.5 334.933 634.605 336.5 633.5 336.5 632.396 336.5 631.5 334.933 631.5 333Z" stroke="#A6A6A6" stroke-linejoin="round" stroke-miterlimit="10" fill="none" fill-rule="evenodd"/><path d="M635.5 331.962 642.524 331.5 644.5 334.5" stroke="#A6A6A6" stroke-linejoin="round" stroke-miterlimit="10" fill="none" fill-rule="evenodd"/><text font-family="Abel,Abel_MSFontService,sans-serif" font-weight="400" font-size="13" transform="translate(636.808 515)">multiple types<tspan font-size="13" x="-3.41998" y="16">of expert users</tspan><tspan font-size="13" x="382.407" y="0">narrative designs </tspan><tspan font-size="13" x="367.74" y="16">for in/tangible histories</tspan></text><path d="M0.455284-0.697969 24.4848 14.9764 23.5743 16.3724-0.455284 0.697969ZM22.9143 8.62646 25.0894 16.3658 17.1299 17.4943C16.6742 17.5589 16.2524 17.2418 16.1878 16.7862 16.1232 16.3305 16.4402 15.9087 16.8959 15.8441L23.9125 14.8493 23.2272 15.8998 21.3098 9.0774C21.1853 8.63432 21.4435 8.1742 21.8866 8.04967 22.3297 7.92515 22.7898 8.18339 22.9143 8.62646Z" fill="#9AD4F1" transform="matrix(1 0 0 -1 978 424.366)"/><path d="M0.803015-0.222735 10.3965 34.3641 8.79047 34.8096-0.803015 0.222735ZM13.4159 28.5615 9.93176 35.8064 3.21347 31.3914C2.82885 31.1387 2.72195 30.622 2.97471 30.2373 3.22747 29.8527 3.74416 29.7458 4.12878 29.9986L10.0512 33.8906 8.84251 34.2258 11.9139 27.8392C12.1134 27.4244 12.6113 27.2499 13.0261 27.4494 13.4408 27.6488 13.6154 28.1468 13.4159 28.5615Z" fill="#9AD4F1" transform="matrix(1 0 0 -1 970 415.808)"/><path d="M955.639 414.364 947.336 350.363 948.989 350.148 957.292 414.15ZM943.529 355.682 948 349.001 954.028 354.32C954.373 354.624 954.406 355.151 954.102 355.496 953.797 355.841 953.271 355.874 952.926 355.57L947.612 350.881 948.856 350.72 944.914 356.609C944.658 356.992 944.14 357.094 943.758 356.838 943.375 356.582 943.273 356.064 943.529 355.682Z" fill="#9AD4F1"/><path d="M664.5 431.5 664.5 482.815" stroke="#A6A6A6" stroke-width="0.666667" stroke-miterlimit="8" fill="none" fill-rule="evenodd"/><path d="M895.5 458.5 895.5 495.642" stroke="#A6A6A6" stroke-width="0.666667" stroke-miterlimit="8" fill="none" fill-rule="evenodd"/><path d="M1148.51 361.5 1110.5 361.5" stroke="#A6A6A6" stroke-width="0.666667" stroke-miterlimit="8" fill="none" fill-rule="evenodd"/><text font-family="Abel,Abel_MSFontService,sans-serif" font-weight="400" font-size="15" transform="translate(729.221 275)">1a) <tspan font-size="15" x="25.8333" y="0">Search</tspan><tspan font-size="15" x="27.5233" y="44">1b)</tspan><tspan font-size="15" x="53.3566" y="44">Creation</tspan><tspan fill="#FFFFFF" font-size="15" x="49.1964" y="81">3</tspan><tspan font-size="15" x="60.0297" y="81">1c)</tspan><tspan font-size="15" x="85.8631" y="81">Curation</tspan><tspan fill="#FFFFFF" font-size="15" x="88.9534" y="119">4</tspan><tspan font-size="15" x="99.6201" y="119">2)</tspan><tspan fill="#FFFFFF" font-size="15" x="111.62" y="119">) </tspan><tspan font-size="15" x="119.787" y="119">Analysis</tspan><tspan font-size="15" x="113.304" y="161">3)  Communication</tspan></text><path d="M783.675 284.587 800.427 302.751 799.202 303.881 782.45 285.717ZM783.409 291.486 781.996 283.996 789.348 286.008C789.792 286.13 790.054 286.588 789.932 287.032 789.811 287.476 789.352 287.738 788.908 287.616L782.842 285.955 783.881 284.997 785.047 291.178C785.132 291.63 784.834 292.066 784.382 292.151 783.93 292.236 783.494 291.939 783.409 291.486ZM799.468 296.981 800.881 304.472 793.529 302.459C793.085 302.338 792.823 301.879 792.945 301.435 793.066 300.991 793.525 300.73 793.969 300.852L800.035 302.512 798.996 303.47 797.83 297.29C797.745 296.838 798.043 296.402 798.495 296.317 798.947 296.231 799.383 296.529 799.468 296.981Z" fill="#81CFFF"/><path d="M820.675 322.587 837.427 340.751 836.202 341.881 819.45 323.717ZM820.409 329.486 818.996 321.996 826.348 324.008C826.792 324.13 827.054 324.588 826.932 325.032 826.811 325.476 826.352 325.738 825.908 325.616L819.842 323.955 820.881 322.997 822.047 329.178C822.132 329.63 821.834 330.066 821.382 330.151 820.93 330.236 820.494 329.939 820.409 329.486ZM836.468 334.981 837.881 342.472 830.529 340.459C830.085 340.338 829.823 339.879 829.945 339.435 830.066 338.991 830.525 338.73 830.969 338.852L837.035 340.512 835.996 341.47 834.83 335.29C834.745 334.838 835.043 334.402 835.495 334.317 835.947 334.231 836.383 334.529 836.468 334.981Z" fill="#81CFFF"/><path d="M854.675 360.587 871.427 378.751 870.202 379.881 853.45 361.717ZM854.409 367.486 852.996 359.996 860.348 362.008C860.792 362.13 861.054 362.588 860.932 363.032 860.811 363.476 860.352 363.738 859.908 363.616L853.842 361.955 854.881 360.997 856.047 367.178C856.132 367.63 855.834 368.066 855.382 368.151 854.93 368.236 854.494 367.939 854.409 367.486ZM870.468 372.981 871.881 380.472 864.529 378.459C864.085 378.338 863.823 377.879 863.945 377.435 864.066 376.991 864.525 376.73 864.969 376.852L871.035 378.512 869.996 379.47 868.83 373.29C868.745 372.838 869.043 372.402 869.495 372.317 869.947 372.231 870.383 372.529 870.468 372.981Z" fill="#81CFFF"/><path d="M889.675 399.587 906.427 417.751 905.202 418.881 888.45 400.717ZM889.409 406.486 887.996 398.996 895.348 401.008C895.792 401.13 896.054 401.588 895.932 402.032 895.811 402.476 895.352 402.738 894.908 402.616L888.842 400.955 889.881 399.997 891.047 406.178C891.132 406.63 890.834 407.066 890.382 407.151 889.93 407.236 889.494 406.939 889.409 406.486ZM905.468 411.981 906.881 419.472 899.529 417.459C899.085 417.338 898.823 416.879 898.945 416.435 899.066 415.991 899.525 415.73 899.969 415.852L906.035 417.512 904.996 418.47 903.83 412.29C903.745 411.838 904.043 411.402 904.495 411.317 904.947 411.231 905.383 411.529 905.468 411.981Z" fill="#81CFFF"/><text fill="#666666" font-family="Abel,Abel_MSFontService,sans-serif" font-weight="400" font-size="12" transform="translate(359.936 464)">AT<tspan font-size="12" x="21.0533" y="-33">NL</tspan></text><path d="M535.5 286.5 535.5 323.241 552.5 348.5 552.5 306.88 535.5 286.5Z" stroke="#7F7F7F" stroke-width="1.33333" stroke-miterlimit="8" fill="#FFFFFF" fill-rule="evenodd"/><path d="M558.5 313.5 558.5 356.379 574.5 381.5 574.5 332.124 558.5 313.5Z" stroke="#7F7F7F" stroke-width="1.33333" stroke-miterlimit="8" fill="#FFFFFF" fill-rule="evenodd"/><path d="M579.5 389.177 579.5 339.5 606.5 369.307 606.5 427.5 579.5 389.177Z" stroke="#7F7F7F" stroke-width="1.33333" stroke-miterlimit="8" fill="#FFFFFF" fill-rule="evenodd"/><text fill="#00B0F0" font-family="Abel,Abel_MSFontService,sans-serif" font-weight="400" font-size="12" transform="translate(538.577 319)">1<tspan font-size="12" x="24.7116" y="31">2</tspan><tspan font-size="12" x="51.8603" y="66">3</tspan><tspan fill="#000000" font-size="14" x="-29.3098" y="-79">1) Data Curation Lab</tspan></text><path d="M542.5 246.5 542.5 302.522" stroke="#A6A6A6" stroke-width="0.666667" stroke-miterlimit="8" fill="none" fill-rule="evenodd"/><path d="M566.5 281.5 566.5 332.844" stroke="#A6A6A6" stroke-width="0.666667" stroke-miterlimit="8" fill="none" fill-rule="evenodd"/><text font-family="Abel,Abel_MSFontService,sans-serif" font-weight="400" font-size="14" transform="translate(550.23 272)">2) Visual Analytics Studio<tspan font-size="14" x="41.0302" y="30">3) Storytelling Suite</tspan></text><path d="M594.5 310.5 594.5 367.834" stroke="#A6A6A6" stroke-width="0.666667" stroke-miterlimit="8" fill="none" fill-rule="evenodd"/><path d="M0.688571-0.469377 17.612 24.3571 16.2348 25.2958-0.688571 0.469377ZM18.6027 17.8913 17.6362 25.8721 9.85428 23.8548C9.40876 23.7393 9.14123 23.2845 9.25672 22.839 9.37222 22.3935 9.827 22.1259 10.2725 22.2414L17.1325 24.0198 16.0961 24.7263 16.9481 17.6909C17.0034 17.234 17.4187 16.9085 17.8756 16.9638 18.3325 17.0191 18.658 17.4344 18.6027 17.8913Z" fill="#9AD4F1" transform="matrix(1 0 0 -1 974 419.873)"/><path d="M951.5 335.5 944.5 327.803 944.5 304.5 951.5 312.197Z" stroke="#7F7F7F" stroke-width="1.33333" stroke-miterlimit="8" fill="#FFFFFF" fill-rule="evenodd"/><path d="M966.5 353.5 959.5 345.803 959.5 322.5 966.5 330.197Z" stroke="#7F7F7F" stroke-width="1.33333" stroke-miterlimit="8" fill="#FFFFFF" fill-rule="evenodd"/><path d="M982.5 370.5 974.5 361.703 974.5 339.5 982.5 348.297Z" stroke="#7F7F7F" stroke-width="1.33333" stroke-miterlimit="8" fill="#FFFFFF" fill-rule="evenodd"/><path d="M997.5 387.5 990.5 379.803 990.5 356.5 997.5 364.197Z" stroke="#7F7F7F" stroke-width="1.33333" stroke-miterlimit="8" fill="#FFFFFF" fill-rule="evenodd"/><path d="M1013.5 403.5 1006.5 395.803 1006.5 372.5 1013.5 380.197Z" stroke="#7F7F7F" stroke-width="1.33333" stroke-miterlimit="8" fill="#FFFFFF" fill-rule="evenodd"/><path d="M0.832469-0.0379394 2.96314 46.7135 1.2982 46.7894-0.832469 0.0379394ZM7.20118 41.7309 2.18829 48.0157-3.37547 42.2129C-3.694 41.8807-3.6829 41.3532-3.3507 41.0347-3.01849 40.7162-2.49097 40.7273-2.17245 41.0595L2.73219 46.1748 1.4792 46.2319 5.89821 40.6917C6.1852 40.3318 6.70953 40.2728 7.06933 40.5598 7.42913 40.8468 7.48816 41.3711 7.20118 41.7309Z" fill="#9AD4F1" transform="matrix(1 0 0 -1 963 414.017)"/><path d="M0.229404-0.973331 25.1605 4.90266 24.7017 6.84932-0.229404 0.973331ZM21.6241-0.471165 26.4091 6.22435 19.1377 10.0783C18.6497 10.3369 18.0444 10.151 17.7858 9.663 17.5272 9.17502 17.7131 8.56977 18.2011 8.31114L24.4627 4.99241 24.1174 6.45742 19.9969 0.691721C19.6758 0.242389 19.7797-0.382187 20.229-0.703309 20.6784-1.02443 21.3029-0.920497 21.6241-0.471165Z" fill="#82CAEE" transform="matrix(1 0 0 -1 511 372.225)"/><path d="M0.642818-0.766019 16.1941 12.2841 14.9084 13.8161-0.642818 0.766019ZM15.4538 5.8938 16.7145 14.0263 8.48665 14.1963C7.93448 14.2077 7.47761 13.7693 7.4662 13.2172 7.45479 12.665 7.89317 12.2081 8.44533 12.1967L15.5306 12.0503 14.563 13.2033 13.4774 6.20018C13.3928 5.65441 13.7667 5.14339 14.3124 5.05879 14.8582 4.97419 15.3692 5.34803 15.4538 5.8938Z" fill="#82CAEE" transform="matrix(1 0 0 -1 505 354.027)"/><path d="M517.448 382.106 550.958 398.875 550.063 400.664 516.552 383.894ZM548.755 392.831 551.868 400.449 543.904 402.524C543.37 402.663 542.824 402.343 542.685 401.808 542.545 401.274 542.866 400.728 543.4 400.588L550.258 398.802 549.585 400.148 546.904 393.588C546.695 393.077 546.94 392.493 547.451 392.284 547.962 392.075 548.546 392.32 548.755 392.831Z" fill="#82CAEE"/><path d="M3.75433 0.852897 5.38203-0.335554 8.59354-0.614816 11.6543 0.541486 13.3722 1.98453 14.591 3.74496 15.4013 5.77079 15.6618 7.91978 14.3382 8.08022 14.0882 6.01772 14.131 6.18509 13.381 4.31009 13.4519 4.44197 12.3269 2.81697 12.4462 2.94797 10.8837 1.63547 11.0769 1.74865 8.2644 0.686148 8.55775 0.72666 5.68275 0.97666 6.01812 0.850921 4.54058 1.92974ZM6.87323 2.59923 1.0625 3.9375 3.47832-1.51405Z" fill="#00B0F0" transform="matrix(-1 0 0 1 824.5 261.5)"/><path d="M11.3393 15.1823 9.68118 16.398 6.46896 16.6773 3.40594 15.5202 1.55732 13.9454 0.273174 11.9854-0.538588 9.68542-0.603923 7.26801 0.728923 7.23199 0.791423 9.54449 0.75366 9.34062 1.50366 11.4656 1.43264 11.3221 2.62014 13.1346 2.49481 12.9925 4.18231 14.43 3.9856 14.3139 6.7981 15.3764 6.50475 15.3358 9.37975 15.0858 9.04331 15.2124 10.5509 14.107ZM8.20535 13.4687 14 12.0625 11.6482 17.542Z" fill="#00B0F0" transform="matrix(-1 0 0 1 824.5 262.5)"/><path d="M4.07954 0.765147 6.05155-0.475255 9.4268-0.544138 12.6537 0.665949 14.3722 2.10953 15.5887 3.86668 16.4004 5.82814 16.6615 7.91731 15.3385 8.08269 15.0885 6.08269 15.134 6.2549 14.384 4.4424 14.4519 4.56697 13.3269 2.94197 13.4462 3.07297 11.8837 1.76047 12.0784 1.87422 9.07842 0.749219 9.3261 0.791528 6.2636 0.854028 6.60496 0.751814 4.78945 1.89378ZM7.10968 2.64561 1.25 3.75 3.8823-1.60038Z" fill="#00B0F0" transform="matrix(-1 0 0 1 855.5 304.5)"/><path d="M11.7092 14.4504 9.80857 15.5381 6.44579 15.6067 3.28082 14.3946 1.50404 12.8911 0.212816 11.0562-0.538301 8.87118-0.603861 6.70769 0.728861 6.66731 0.791361 8.72981 0.755458 8.53328 1.44296 10.5333 1.3577 10.3663 2.5452 12.0538 2.43063 11.9286 4.05563 13.3036 3.86343 13.1899 6.80093 14.3149 6.5489 14.271 9.6114 14.2085 9.29387 14.2964 11.047 13.2931ZM8.77714 12.4144 14.6875 11.625 11.7728 16.8269Z" fill="#00B0F0" transform="matrix(-1 0 0 1 855.5 305.5)"/><path d="M4.07954 0.765147 6.05155-0.475255 9.4268-0.544138 12.6537 0.665949 14.3722 2.10953 15.5887 3.86668 16.4004 5.82814 16.6615 7.91731 15.3385 8.08269 15.0885 6.08269 15.134 6.2549 14.384 4.4424 14.4519 4.56697 13.3269 2.94197 13.4462 3.07297 11.8837 1.76047 12.0784 1.87422 9.07842 0.749219 9.3261 0.791528 6.2636 0.854028 6.60496 0.751814 4.78945 1.89378ZM7.10968 2.64561 1.25 3.75 3.8823-1.60038Z" fill="#00B0F0" transform="matrix(-1 0 0 1 886.5 344.5)"/><path d="M11.9968 15.2432 10.0828 16.4712 6.70481 16.6091 3.47483 15.3979 1.56691 13.8307 0.208259 11.8606-0.538752 9.55167-0.60391 7.20601 0.72891 7.16899 0.79141 9.41899 0.759296 9.23229 1.4468 11.3573 1.36131 11.184 2.61131 12.9965 2.48566 12.8598 4.23566 14.2973 4.04658 14.1883 7.04658 15.3133 6.78531 15.2714 9.84781 15.1464 9.515 15.2514 11.2768 14.121ZM8.95688 13.3757 14.8125 12.25 12.1997 17.6099Z" fill="#00B0F0" transform="matrix(-1 0 0 1 886.5 344.5)"/><path d="M4.39165 0.58721 6.32861-0.479167 9.68579-0.479167 12.8338 0.726439 14.4888 2.03664 15.6509 3.67733 16.399 5.51349 16.6604 7.40891 15.3396 7.59109 15.0896 5.77859 15.1326 5.93903 14.4451 4.25153 14.5185 4.38534 13.456 2.88534 13.5862 3.0227 12.0862 1.8352 12.2616 1.93507 9.32407 0.810071 9.5625 0.854167 6.5 0.854167 6.82152 0.771511 5.03469 1.75523ZM7.29508 2.66207 1.375 3.375 4.3567-1.78882Z" fill="#00B0F0" transform="matrix(-1 0 0 1 923.5 382.5)"/><path d="M11.9968 15.2432 10.0828 16.4712 6.70481 16.6091 3.47483 15.3979 1.56691 13.8307 0.208259 11.8606-0.538752 9.55167-0.60391 7.20601 0.72891 7.16899 0.79141 9.41899 0.759296 9.23229 1.4468 11.3573 1.36131 11.184 2.61131 12.9965 2.48566 12.8598 4.23566 14.2973 4.04658 14.1883 7.04658 15.3133 6.78531 15.2714 9.84781 15.1464 9.515 15.2514 11.2768 14.121ZM8.95688 13.3757 14.8125 12.25 12.1997 17.6099Z" fill="#00B0F0" transform="matrix(-1 0 0 1 923.5 382.5)"/><path d="M4.39165 0.58721 6.32861-0.479167 9.68579-0.479167 12.8338 0.726439 14.4888 2.03664 15.6509 3.67733 16.399 5.51349 16.6604 7.40891 15.3396 7.59109 15.0896 5.77859 15.1326 5.93903 14.4451 4.25153 14.5185 4.38534 13.456 2.88534 13.5862 3.0227 12.0862 1.8352 12.2616 1.93507 9.32407 0.810071 9.5625 0.854167 6.5 0.854167 6.82152 0.771511 5.03469 1.75523ZM7.29508 2.66207 1.375 3.375 4.3567-1.78882Z" fill="#00B0F0" transform="matrix(-1 0 0 1 969.5 422.5)"/><path d="M11.9968 15.2432 10.0828 16.4712 6.70481 16.6091 3.47483 15.3979 1.56691 13.8307 0.208259 11.8606-0.538752 9.55167-0.60391 7.20601 0.72891 7.16899 0.79141 9.41899 0.759296 9.23229 1.4468 11.3573 1.36131 11.184 2.61131 12.9965 2.48566 12.8598 4.23566 14.2973 4.04658 14.1883 7.04658 15.3133 6.78531 15.2714 9.84781 15.1464 9.515 15.2514 11.2768 14.121ZM8.95688 13.3757 14.8125 12.25 12.1997 17.6099Z" fill="#00B0F0" transform="matrix(-1 0 0 1 969.5 422.5)"/><path d="M1.2998-0.7807 25.6493 0.218426 25.5809 1.88369 1.23147 0.884565ZM5.82912 5.53745 0.00117208 4.81681e-05 6.2632-5.04127C6.62169-5.32989 7.14628-5.27323 7.43489-4.91473 7.72351-4.55624 7.66685-4.03165 7.30836-3.74304L1.78818 0.701049 1.83961-0.552191 6.97713 4.32921C7.31078 4.64622 7.32426 5.17369 7.00725 5.50734 6.69023 5.84098 6.16277 5.85447 5.82912 5.53745ZM21.0516-4.43446 26.8796 1.10294 20.6175 6.14426C20.259 6.43288 19.7345 6.37622 19.4458 6.01773 19.1572 5.65923 19.2139 5.13464 19.5724 4.84603L25.0926 0.401943 25.0411 1.65518 19.9036-3.22622C19.57-3.54323 19.5565-4.0707 19.8735-4.40434 20.1905-4.73799 20.718-4.75148 21.0516-4.43446Z" fill="#9AD4F1" transform="matrix(1 0 0 -1 958 312.103)"/><path d="M1.2998-0.7807 25.6493 0.218426 25.5809 1.88369 1.23147 0.884565ZM5.82912 5.53745 0.00117208 4.81681e-05 6.2632-5.04127C6.62169-5.32989 7.14628-5.27323 7.43489-4.91473 7.72351-4.55624 7.66685-4.03165 7.30836-3.74304L1.78818 0.701049 1.83961-0.552191 6.97713 4.32921C7.31078 4.64622 7.32426 5.17369 7.00725 5.50734 6.69023 5.84098 6.16277 5.85447 5.82912 5.53745ZM21.0516-4.43446 26.8796 1.10294 20.6175 6.14426C20.259 6.43288 19.7345 6.37622 19.4458 6.01773 19.1572 5.65923 19.2139 5.13464 19.5724 4.84603L25.0926 0.401943 25.0411 1.65518 19.9036-3.22622C19.57-3.54323 19.5565-4.0707 19.8735-4.40434 20.1905-4.73799 20.718-4.75148 21.0516-4.43446Z" fill="#9AD4F1" transform="matrix(1 0 0 -1 972 329.103)"/><path d="M1.2998-0.7807 25.6493 0.218426 25.5809 1.88369 1.23147 0.884565ZM5.82912 5.53745 0.00117208 4.81681e-05 6.2632-5.04127C6.62169-5.32989 7.14628-5.27323 7.43489-4.91473 7.72351-4.55624 7.66685-4.03165 7.30836-3.74304L1.78818 0.701049 1.83961-0.552191 6.97713 4.32921C7.31078 4.64622 7.32426 5.17369 7.00725 5.50734 6.69023 5.84098 6.16277 5.85447 5.82912 5.53745ZM21.0516-4.43446 26.8796 1.10294 20.6175 6.14426C20.259 6.43288 19.7345 6.37622 19.4458 6.01773 19.1572 5.65923 19.2139 5.13464 19.5724 4.84603L25.0926 0.401943 25.0411 1.65518 19.9036-3.22622C19.57-3.54323 19.5565-4.0707 19.8735-4.40434 20.1905-4.73799 20.718-4.75148 21.0516-4.43446Z" fill="#9AD4F1" transform="matrix(1 0 0 -1 990 348.103)"/><path d="M1.2998-0.7807 25.6493 0.218426 25.5809 1.88369 1.23147 0.884565ZM5.82912 5.53745 0.00117208 4.81681e-05 6.2632-5.04127C6.62169-5.32989 7.14628-5.27323 7.43489-4.91473 7.72351-4.55624 7.66685-4.03165 7.30836-3.74304L1.78818 0.701049 1.83961-0.552191 6.97713 4.32921C7.31078 4.64622 7.32426 5.17369 7.00725 5.50734 6.69023 5.84098 6.16277 5.85447 5.82912 5.53745ZM21.0516-4.43446 26.8796 1.10294 20.6175 6.14426C20.259 6.43288 19.7345 6.37622 19.4458 6.01773 19.1572 5.65923 19.2139 5.13464 19.5724 4.84603L25.0926 0.401943 25.0411 1.65518 19.9036-3.22622C19.57-3.54323 19.5565-4.0707 19.8735-4.40434 20.1905-4.73799 20.718-4.75148 21.0516-4.43446Z" fill="#9AD4F1" transform="matrix(1 0 0 -1 1005 362.103)"/><path d="M1.2998-0.7807 25.6493 0.218426 25.5809 1.88369 1.23147 0.884565ZM5.82912 5.53745 0.00117208 4.81681e-05 6.2632-5.04127C6.62169-5.32989 7.14628-5.27323 7.43489-4.91473 7.72351-4.55624 7.66685-4.03165 7.30836-3.74304L1.78818 0.701049 1.83961-0.552191 6.97713 4.32921C7.31078 4.64622 7.32426 5.17369 7.00725 5.50734 6.69023 5.84098 6.16277 5.85447 5.82912 5.53745ZM21.0516-4.43446 26.8796 1.10294 20.6175 6.14426C20.259 6.43288 19.7345 6.37622 19.4458 6.01773 19.1572 5.65923 19.2139 5.13464 19.5724 4.84603L25.0926 0.401943 25.0411 1.65518 19.9036-3.22622C19.57-3.54323 19.5565-4.0707 19.8735-4.40434 20.1905-4.73799 20.718-4.75148 21.0516-4.43446Z" fill="#9AD4F1" transform="matrix(1 0 0 -1 1023 380.103)"/><path d="M998.5 309.5C998.5 303.425 1003.65 298.5 1010 298.5 1016.35 298.5 1021.5 303.425 1021.5 309.5 1021.5 315.575 1016.35 320.5 1010 320.5 1003.65 320.5 998.5 315.575 998.5 309.5Z" stroke="#A6A6A6" stroke-linejoin="round" stroke-miterlimit="10" fill="#FFFFFF" fill-rule="evenodd"/><path d="M0 0 0.0435696 2.8064" stroke="#A6A6A6" stroke-linejoin="round" stroke-miterlimit="10" fill="none" fill-rule="evenodd" transform="matrix(-1 0 0 1 1008.54 307.5)"/><path d="M1005.5 310.146 1005.5 307.5" stroke="#A6A6A6" stroke-linejoin="round" stroke-miterlimit="10" fill="none" fill-rule="evenodd"/><path d="M1025 333.198 1023.19 329.754 1020.94 328.148 1017.32 327 1012.36 327 1009.2 328.148 1006.26 332.05 1005.33 335.532 1002.65 338.936 998 343.346 1005.73 345 1008.58 338.796 1012.24 336.315 1017.12 334.661 1022 334.247" fill="#FFFFFF" fill-rule="evenodd"/><path d="M1021.5 332.637 1019.63 329.227 1017.28 327.637 1013.54 326.5 1008.38 326.5 1005.1 327.637 1002.06 331.5 1001.09 334.948 998.311 338.318 995.5 341.5" stroke="#A6A6A6" stroke-linejoin="round" stroke-miterlimit="10" fill="none" fill-rule="evenodd"/><path d="M1012.5 320.5 1008.5 323.409 1016.5 324.5 1012.5 320.5Z" stroke="#A6A6A6" stroke-miterlimit="8" fill="#FFFFFF" fill-rule="evenodd"/><path d="M1011.5 317.5C1011.5 311.425 1016.42 306.5 1022.5 306.5 1028.58 306.5 1033.5 311.425 1033.5 317.5 1033.5 323.575 1028.58 328.5 1022.5 328.5 1016.42 328.5 1011.5 323.575 1011.5 317.5Z" stroke="#A6A6A6" stroke-linejoin="round" stroke-miterlimit="10" fill="#FFFFFF" fill-rule="evenodd"/><path d="M0 0 0.0435696 2.8064" stroke="#A6A6A6" stroke-linejoin="round" stroke-miterlimit="10" fill="none" fill-rule="evenodd" transform="matrix(-1 0 0 1 1020.54 316.5)"/><path d="M1017.5 319.146 1017.5 316.5" stroke="#A6A6A6" stroke-linejoin="round" stroke-miterlimit="10" fill="none" fill-rule="evenodd"/><path d="M1038 342.198 1036.13 338.754 1033.79 337.148 1030.04 336 1024.89 336 1021.61 337.148 1018.57 341.05 1017.61 344.532 1014.82 347.936 1010 352.346 1018.01 354 1020.97 347.796 1024.76 345.315 1029.83 343.661 1034.89 343.247" fill="#FFFFFF" fill-rule="evenodd"/><path d="M1039.5 342.637 1037.63 339.227 1035.28 337.637 1031.54 336.5 1026.38 336.5 1023.1 337.637 1020.06 341.5 1019.09 344.948 1016.31 348.318 1013.5 351.5" stroke="#A6A6A6" stroke-linejoin="round" stroke-miterlimit="10" fill="none" fill-rule="evenodd"/><path d="M1014.5 310.66 1021.73 308.86 1025.4 311.74 1028.01 317.62 1025.64 325.54 1019.83 326.62 1026.47 329.5 1039.5 318.94 1036.18 309.1 1027.65 305.5 1019.36 305.5 1014.5 310.66Z" stroke="#A6A6A6" stroke-miterlimit="8" fill="#FFFFFF" fill-rule="evenodd"/><path d="M1026.5 327.5C1026.5 321.425 1031.42 316.5 1037.5 316.5 1043.58 316.5 1048.5 321.425 1048.5 327.5 1048.5 333.575 1043.58 338.5 1037.5 338.5 1031.42 338.5 1026.5 333.575 1026.5 327.5Z" stroke="#A6A6A6" stroke-linejoin="round" stroke-miterlimit="10" fill="#FFFFFF" fill-rule="evenodd"/><path d="M0 0 0.0435696 2.8064" stroke="#A6A6A6" stroke-linejoin="round" stroke-miterlimit="10" fill="none" fill-rule="evenodd" transform="matrix(-1 0 0 1 1035.54 326.5)"/><path d="M1032.5 329.146 1032.5 326.5" stroke="#A6A6A6" stroke-linejoin="round" stroke-miterlimit="10" fill="none" fill-rule="evenodd"/><path d="M1053 352.198 1051.13 348.754 1048.79 347.148 1045.04 346 1039.89 346 1036.61 347.148 1033.57 351.05 1032.61 354.532 1029.82 357.936 1025 362.346 1033.01 364 1035.97 357.796 1039.76 355.315 1044.83 353.661 1049.89 353.247" fill="#FFFFFF" fill-rule="evenodd"/><path d="M1053.5 352.637 1051.63 349.227 1049.28 347.637 1045.54 346.5 1040.38 346.5 1037.1 347.637 1034.06 351.5 1033.09 354.948 1030.31 358.318 1027.5 361.5" stroke="#A6A6A6" stroke-linejoin="round" stroke-miterlimit="10" fill="none" fill-rule="evenodd"/><path d="M1040.5 340.5C1040.5 334.425 1045.42 329.5 1051.5 329.5 1057.58 329.5 1062.5 334.425 1062.5 340.5 1062.5 346.575 1057.58 351.5 1051.5 351.5 1045.42 351.5 1040.5 346.575 1040.5 340.5Z" stroke="#A6A6A6" stroke-linejoin="round" stroke-miterlimit="10" fill="#FFFFFF" fill-rule="evenodd"/><path d="M0 0 0.0435696 2.8064" stroke="#A6A6A6" stroke-linejoin="round" stroke-miterlimit="10" fill="none" fill-rule="evenodd" transform="matrix(-1 0 0 1 1049.54 339.5)"/><path d="M1046.5 342.146 1046.5 339.5" stroke="#A6A6A6" stroke-linejoin="round" stroke-miterlimit="10" fill="none" fill-rule="evenodd"/><path d="M1067 364.198 1065.13 360.754 1062.79 359.148 1059.04 358 1053.89 358 1050.61 359.148 1047.57 363.05 1046.61 366.532 1043.82 369.936 1039 374.346 1047.01 376 1049.97 369.796 1053.76 367.315 1058.83 365.661 1063.89 365.247" fill="#FFFFFF" fill-rule="evenodd"/><path d="M1067.5 365.046 1065.63 361.409 1063.28 359.713 1059.54 358.5 1054.38 358.5 1051.1 359.713 1048.06 363.833 1047.09 367.511 1044.31 371.106 1041.5 374.5" stroke="#A6A6A6" stroke-linejoin="round" stroke-miterlimit="10" fill="none" fill-rule="evenodd"/><path d="M1054.23 328.051 1047.34 328.051 1043.38 330.612 1041.5 333.601 1049.43 333.601 1051.52 335.309 1053.81 339.792 1057.57 340.86 1059.66 341.5 1065.08 341.5 1064.67 336.376 1061.74 332.747 1065.5 332.107 1065.29 327.41 1061.12 322.5 1055.07 322.927 1054.23 328.051Z" stroke="#A6A6A6" stroke-linejoin="round" stroke-miterlimit="10" fill="#FFFFFF" fill-rule="evenodd"/><path d="M1055.5 351C1055.5 344.649 1060.42 339.5 1066.5 339.5 1072.58 339.5 1077.5 344.649 1077.5 351 1077.5 357.351 1072.58 362.5 1066.5 362.5 1060.42 362.5 1055.5 357.351 1055.5 351Z" stroke="#A6A6A6" stroke-linejoin="round" stroke-miterlimit="10" fill="#FFFFFF" fill-rule="evenodd"/><path d="M0 0 0.0435696 2.8064" stroke="#A6A6A6" stroke-linejoin="round" stroke-miterlimit="10" fill="none" fill-rule="evenodd" transform="matrix(-1 0 0 1 1064.54 349.5)"/><path d="M1061.5 352.146 1061.5 349.5" stroke="#A6A6A6" stroke-linejoin="round" stroke-miterlimit="10" fill="none" fill-rule="evenodd"/><path d="M1081 375.198 1079.19 371.754 1076.94 370.148 1073.32 369 1068.36 369 1065.2 370.148 1062.26 374.05 1061.33 377.532 1058.65 380.936 1054 385.346 1061.73 387 1064.58 380.796 1068.24 378.315 1073.12 376.661 1078 376.247" fill="#FFFFFF" fill-rule="evenodd"/><path d="M1081.5 375.637 1079.7 372.227 1077.45 370.637 1073.84 369.5 1068.89 369.5 1065.73 370.637 1062.81 374.5 1061.88 377.948 1059.2 381.318 1056.5 384.5" stroke="#A6A6A6" stroke-linejoin="round" stroke-miterlimit="10" fill="none" fill-rule="evenodd"/><path d="M1067.5 360.5C1067.5 354.425 1072.65 349.5 1079 349.5 1085.35 349.5 1090.5 354.425 1090.5 360.5 1090.5 366.575 1085.35 371.5 1079 371.5 1072.65 371.5 1067.5 366.575 1067.5 360.5Z" stroke="#7F7F7F" stroke-linejoin="round" stroke-miterlimit="10" fill="#FFFFFF" fill-rule="evenodd"/><path d="M0 0 0.0435696 2.8064" stroke="#7F7F7F" stroke-linejoin="round" stroke-miterlimit="10" fill="none" fill-rule="evenodd" transform="matrix(-1 0 0 1 1077.54 359.5)"/><path d="M1074.5 362.146 1074.5 359.5" stroke="#7F7F7F" stroke-linejoin="round" stroke-miterlimit="10" fill="none" fill-rule="evenodd"/><path d="M1094 384.542 1092.19 380.907 1089.94 379.212 1086.32 378 1081.36 378 1078.2 379.212 1075.26 383.33 1074.33 387.006 1071.65 390.599 1067 395.254 1074.73 397 1077.58 390.451 1081.24 387.833 1086.12 386.086 1091 385.65" fill="#FFFFFF" fill-rule="evenodd"/><path d="M1094.5 385.637 1092.7 382.227 1090.45 380.637 1086.84 379.5 1081.89 379.5 1078.73 380.637 1075.81 384.5 1074.88 387.948 1072.2 391.318 1069.5 394.5" stroke="#7F7F7F" stroke-linejoin="round" stroke-miterlimit="10" fill="none" fill-rule="evenodd"/><path d="M1071.5 351.322 1097.5 361.5 1095.33 357.75 1089.92 356.679 1089.92 348.107 1076.92 346.5 1071.5 351.322Z" stroke="#7F7F7F" stroke-linejoin="round" stroke-miterlimit="10" fill="#FFFFFF" fill-rule="evenodd"/><path d="M1009.46 291.5 1009.46 291.5C1009.26 292.008 1009.06 292.513 1008.87 293.024 1008.73 293.402 1008.7 293.833 1008.47 294.167L1007.68 295.31C1007.55 295.5 1007.36 295.664 1007.29 295.881 1007.16 296.262 1007.13 296.69 1006.9 297.024 1006.46 297.648 1006.5 297.366 1006.5 297.786L1012.22 297.976 1013.8 299.31 1014.39 303.5 1020.5 297.024 1014.39 297.024 1012.42 296.072 1009.46 291.5Z" stroke="#A6A6A6" stroke-linejoin="round" stroke-miterlimit="10" fill="#FFFFFF" fill-rule="evenodd"/><path d="M215.5 265.5 215.5 288.602" stroke="#A6A6A6" stroke-width="0.666667" stroke-miterlimit="8" fill="none" fill-rule="evenodd"/><path d="M331.5 267.5 331.5 302.842" stroke="#A6A6A6" stroke-width="0.666667" stroke-miterlimit="8" fill="none" fill-rule="evenodd"/><text font-family="Abel,Abel_MSFontService,sans-serif" font-weight="400" font-size="13" transform="translate(1161.98 350)">present<tspan font-size="13" x="38.6667" y="0">-</tspan><tspan font-size="13" x="42.5" y="0">day, </tspan><tspan font-size="13" x="4.33337" y="16">non</tspan>-<tspan font-size="13" x="26.1667" y="16">expert </tspan><tspan font-size="13" x="7.2467" y="32">audiences</tspan></text><path d="M1038.5 410.5 1038.5 494.847" stroke="#A6A6A6" stroke-width="0.666667" stroke-miterlimit="8" fill="none" fill-rule="evenodd"/><path d="M750.5 311.295C750.5 303.676 756.676 297.5 764.295 297.5L855.706 297.5C863.324 297.5 869.5 303.676 869.5 311.295L869.5 315.705C869.5 323.324 863.324 329.5 855.706 329.5L764.295 329.5C756.676 329.5 750.5 323.324 750.5 315.705Z" stroke="#D9D9D9" stroke-width="1.33333" stroke-miterlimit="8" fill="none" fill-rule="evenodd"/><path d="M782.5 350.726C782.5 342.869 788.869 336.5 796.726 336.5L887.274 336.5C895.131 336.5 901.5 342.869 901.5 350.726L901.5 355.274C901.5 363.131 895.131 369.5 887.274 369.5L796.726 369.5C788.869 369.5 782.5 363.131 782.5 355.274Z" stroke="#D9D9D9" stroke-width="1.33333" stroke-miterlimit="8" fill="none" fill-rule="evenodd"/><path d="M816.5 388.726C816.5 380.869 822.869 374.5 830.726 374.5L921.274 374.5C929.131 374.5 935.5 380.869 935.5 388.726L935.5 393.274C935.5 401.131 929.131 407.5 921.274 407.5L830.726 407.5C822.869 407.5 816.5 401.131 816.5 393.274Z" stroke="#D9D9D9" stroke-width="1.33333" stroke-miterlimit="8" fill="none" fill-rule="evenodd"/><path d="M851.281 413.5 960.719 413.5C968.882 413.5 975.5 420.041 975.5 428.11L975.5 432.782C975.5 440.85 968.882 447.391 960.719 447.391L855.886 447.391 843.273 455.5 848.033 446.743 845.528 446.243C840.223 444.025 836.5 438.833 836.5 432.782L836.5 428.11C836.5 420.041 843.118 413.5 851.281 413.5Z" stroke="#D9D9D9" stroke-width="1.33333" stroke-miterlimit="8" fill="none" fill-rule="evenodd"/><path d="M231.5 483.5 231.5 506.602" stroke="#A6A6A6" stroke-width="0.666667" stroke-miterlimit="8" fill="none" fill-rule="evenodd"/><path d="M153.5 357.833 180.615 357.833 180.615 359.167 153.5 359.167ZM175.721 353.332 181.628 358.5 175.721 363.669C175.444 363.911 175.023 363.883 174.78 363.606 174.538 363.329 174.566 362.908 174.843 362.665L180.176 357.998 180.176 359.002 174.843 354.335C174.566 354.093 174.538 353.672 174.78 353.394 175.023 353.117 175.444 353.089 175.721 353.332Z" fill="#82CAEE"/><path d="M159.5 408.833 186.615 408.833 186.615 410.167 159.5 410.167ZM181.721 404.332 187.628 409.5 181.721 414.669C181.444 414.911 181.023 414.883 180.78 414.606 180.538 414.329 180.566 413.908 180.843 413.665L186.176 408.998 186.176 410.002 180.843 405.335C180.566 405.093 180.538 404.672 180.78 404.394 181.023 404.117 181.444 404.089 181.721 404.332Z" fill="#82CAEE"/><path d="M724.5 293.5C724.5 292.395 725.619 291.5 727 291.5 728.381 291.5 729.5 292.395 729.5 293.5 729.5 294.605 728.381 295.5 727 295.5 725.619 295.5 724.5 294.605 724.5 293.5Z" stroke="#D9D9D9" stroke-width="1.33333" stroke-miterlimit="8" fill="#FFFFFF" fill-rule="evenodd"/><path d="M728.5 285.5C728.5 283.843 729.843 282.5 731.5 282.5 733.157 282.5 734.5 283.843 734.5 285.5 734.5 287.157 733.157 288.5 731.5 288.5 729.843 288.5 728.5 287.157 728.5 285.5Z" stroke="#D9D9D9" stroke-width="1.33333" stroke-miterlimit="8" fill="#FFFFFF" fill-rule="evenodd"/><path d="M759.5 337.5C759.5 336.395 760.396 335.5 761.5 335.5 762.605 335.5 763.5 336.395 763.5 337.5 763.5 338.605 762.605 339.5 761.5 339.5 760.396 339.5 759.5 338.605 759.5 337.5Z" stroke="#D9D9D9" stroke-width="1.33333" stroke-miterlimit="8" fill="#FFFFFF" fill-rule="evenodd"/><path d="M762.5 330C762.5 328.067 764.067 326.5 766 326.5 767.933 326.5 769.5 328.067 769.5 330 769.5 331.933 767.933 333.5 766 333.5 764.067 333.5 762.5 331.933 762.5 330Z" stroke="#D9D9D9" stroke-width="1.33333" stroke-miterlimit="8" fill="#FFFFFF" fill-rule="evenodd"/><path d="M786.5 378C786.5 376.619 787.619 375.5 789 375.5 790.381 375.5 791.5 376.619 791.5 378 791.5 379.381 790.381 380.5 789 380.5 787.619 380.5 786.5 379.381 786.5 378Z" stroke="#D9D9D9" stroke-width="1.33333" stroke-miterlimit="8" fill="#FFFFFF" fill-rule="evenodd"/><path d="M790.5 370.5C790.5 368.843 791.843 367.5 793.5 367.5 795.157 367.5 796.5 368.843 796.5 370.5 796.5 372.157 795.157 373.5 793.5 373.5 791.843 373.5 790.5 372.157 790.5 370.5Z" stroke="#D9D9D9" stroke-width="1.33333" stroke-miterlimit="8" fill="#FFFFFF" fill-rule="evenodd"/><path d="M819.5 415.5C819.5 414.395 820.619 413.5 822 413.5 823.381 413.5 824.5 414.395 824.5 415.5 824.5 416.605 823.381 417.5 822 417.5 820.619 417.5 819.5 416.605 819.5 415.5Z" stroke="#D9D9D9" stroke-width="1.33333" stroke-miterlimit="8" fill="#FFFFFF" fill-rule="evenodd"/><path d="M823.5 408C823.5 406.067 824.843 404.5 826.5 404.5 828.157 404.5 829.5 406.067 829.5 408 829.5 409.933 828.157 411.5 826.5 411.5 824.843 411.5 823.5 409.933 823.5 408Z" stroke="#D9D9D9" stroke-width="1.33333" stroke-miterlimit="8" fill="#FFFFFF" fill-rule="evenodd"/><path d="M1021.5 398.5 1037.98 410.933" stroke="#A6A6A6" stroke-width="0.666667" stroke-miterlimit="8" fill="none" fill-rule="evenodd"/><path d="M386.5 473.5 386.5 503.222" stroke="#A6A6A6" stroke-width="0.666667" stroke-miterlimit="8" fill="none" fill-rule="evenodd"/></g></svg>