<svg width="1280" height="720" xmlns="http://www.w3.org/2000/svg" xmlns:xlink="http://www.w3.org/1999/xlink" overflow="hidden"><defs><clipPath id="clip0"><rect x="0" y="0" width="1280" height="720"/></clipPath></defs><g clip-path="url(#clip0)"><rect x="0" y="0" width="1280" height="720" fill="#FFFFFF"/><rect x="942.5" y="333.5" width="191" height="69" stroke="#7F7F7F" stroke-width="1.33333" stroke-miterlimit="8" fill="none"/><path d="M601.5 57.5001 601.5 546.546" stroke="#A6A6A6" stroke-miterlimit="8" stroke-dasharray="8 3" fill="none" fill-rule="evenodd"/><path d="M623.039 85.6668 613.398 95.3077 613.398 76.0261Z" fill="#D9D9D9" fill-rule="evenodd"/><path d="M0 13.6342 0 0 13.6341 13.6342Z" fill="#D9D9D9" fill-rule="evenodd" transform="matrix(0.707107 -0.707107 -0.707107 -0.707107 586.907 95.3078)"/><rect x="635" y="71" width="130" height="46" fill="#FFFFFF"/><text font-family="Arial,Arial_MSFontService,sans-serif" font-weight="700" font-stretch="condensed" font-size="16" transform="translate(645.081 92)">Local work space<tspan fill="#A6A6A6" font-weight="400" font-size="16" x="0" y="19">frontend / client </tspan><tspan fill="#A6A6A6" font-weight="400" font-size="16" x="93.5" y="19">side</tspan></text><rect x="419" y="71" width="140" height="46" fill="#FFFFFF"/><text font-family="Arial,Arial_MSFontService,sans-serif" font-weight="700" font-stretch="condensed" font-size="16" transform="translate(442.631 92)">InTaVia database<tspan fill="#A6A6A6" font-weight="400" font-size="16" x="-18.3533" y="19">backend / </tspan><tspan fill="#A6A6A6" font-weight="400" font-size="16" x="42.3133" y="19">server </tspan><tspan fill="#A6A6A6" font-weight="400" font-size="16" x="82.3134" y="19">side</tspan></text><path d="M472.5 209.274C472.5 213.567 487.051 217.048 505 217.048 522.949 217.048 537.5 213.567 537.5 209.274L537.5 238.726C537.5 243.02 522.949 246.5 505 246.5 487.051 246.5 472.5 243.02 472.5 238.726Z" fill="#F2F2F2" fill-rule="evenodd"/><path d="M472.5 209.274C472.5 204.98 487.051 201.5 505 201.5 522.949 201.5 537.5 204.98 537.5 209.274 537.5 213.567 522.949 217.048 505 217.048 487.051 217.048 472.5 213.567 472.5 209.274Z" fill="#F7F7F7" fill-rule="evenodd"/><path d="M537.5 209.274C537.5 213.567 522.949 217.048 505 217.048 487.051 217.048 472.5 213.567 472.5 209.274 472.5 204.98 487.051 201.5 505 201.5 522.949 201.5 537.5 204.98 537.5 209.274L537.5 238.726C537.5 243.02 522.949 246.5 505 246.5 487.051 246.5 472.5 243.02 472.5 238.726L472.5 209.274" stroke="#595959" stroke-width="1.33333" stroke-miterlimit="8" fill="none" fill-rule="evenodd"/><rect x="553.5" y="567.5" width="95" height="65" stroke="#7F7F7F" stroke-width="1.33333" stroke-miterlimit="8" fill="#FFFFFF"/><text font-family="Arial,Arial_MSFontService,sans-serif" font-weight="400" font-stretch="condensed" font-size="16" transform="translate(571.283 599)">VA<tspan font-size="16" x="16.7067" y="0">-</tspan><tspan font-size="16" x="21.04" y="0">NLP</tspan><tspan font-size="16" x="3.15997" y="19">support </tspan></text><path d="M84.6709-1.43358 89.0385-1.11708 93.4482-0.468598 101.918 2.03386 110.128 6.01046 117.927 11.3162 125.313 17.9386 132.231 25.6813 138.688 34.5447 144.63 44.4044 149.993 55.2583 154.784 66.9817 158.877 79.4515 162.338 92.7291 165.043 106.568 166.992 121.028 168.186 135.987 168.453 149.065 165.454 149.126 165.188 136.093 165.192 136.182 164.005 121.307 164.013 121.388 162.076 107.013 162.09 107.1 159.403 93.3502 159.423 93.4408 155.986 80.2533 156.012 80.3429 151.95 67.9679 151.986 68.0674 147.236 56.4424 147.28 56.5396 141.968 45.7896 142.028 45.8992 136.153 36.1492 136.225 36.2583 129.85 27.5083 129.944 27.6244 123.131 19.9994 123.249 20.1169 115.999 13.6169 116.156 13.7402 108.531 8.5527 108.721 8.66247 100.721 4.78747 100.95 4.87603 92.7 2.43853 92.9068 2.48404 88.6568 1.85904 88.7666 1.87108 84.4541 1.55858ZM173.229 143.954 167 151.373 160.474 144.214C159.916 143.602 159.959 142.654 160.572 142.095 161.184 141.537 162.132 141.581 162.691 142.193L168.062 148.085 165.805 148.131 170.931 142.025C171.464 141.391 172.41 141.308 173.044 141.841 173.679 142.374 173.761 143.32 173.229 143.954Z" fill="#A6A6A6" transform="matrix(1 0 0 -1 147.5 565.5)"/><path d="M209.5 599.5 174.5 599.5 174.5 570.438 185.438 559.5 209.5 559.5Z" fill="#FFFFFF" fill-rule="evenodd"/><path d="M185.438 559.5 183.25 568.25 174.5 570.438Z" fill="#CDCDCD" fill-rule="evenodd"/><path d="M185.438 559.5 183.25 568.25 174.5 570.438 185.438 559.5 209.5 559.5 209.5 599.5 174.5 599.5 174.5 570.438" stroke="#7F7F7F" stroke-width="1.33333" stroke-miterlimit="8" fill="none" fill-rule="evenodd"/><path d="M182 575 202.596 575" stroke="#000000" stroke-width="2" stroke-miterlimit="8" fill="none" fill-rule="evenodd"/><path d="M182 581 202.596 581" stroke="#000000" stroke-width="2" stroke-miterlimit="8" fill="none" fill-rule="evenodd"/><path d="M182 588 202.596 588" stroke="#000000" stroke-width="2" stroke-miterlimit="8" fill="none" fill-rule="evenodd"/><rect x="279" y="498" width="94" height="25" fill="#FFFFFF"/><text font-family="Arial,Arial_MSFontService,sans-serif" font-weight="400" font-stretch="condensed" font-size="19" transform="translate(288.997 521)">NLP <tspan fill="#A6A6A6" font-size="19" x="0" y="23">(WP4)</tspan></text><rect x="212" y="559" width="118" height="37" fill="#FFFFFF"/><text font-family="Arial,Arial_MSFontService,sans-serif" font-weight="400" font-stretch="condensed" font-size="16" transform="translate(221.437 580)">unstructured <tspan font-size="16" x="0" y="19">biographies</tspan></text><path d="M247.462 218.07 253.826 218.706 260.106 220.325 266.243 222.909 272.034 226.384 277.606 230.675 282.845 235.722 287.815 241.584 292.328 248.067 296.51 255.227 300.308 262.951 303.662 271.303 306.504 280.145 308.901 289.419 310.794 299.134 312.118 309.223 312.706 317.305 309.714 317.522 309.129 309.484 309.138 309.57 307.825 299.57 307.84 299.662 305.965 290.037 305.985 290.125 303.61 280.938 303.634 281.022 300.822 272.272 300.858 272.371 297.546 264.121 297.592 264.225 293.842 256.6 293.892 256.694 289.767 249.632 289.831 249.732 285.394 243.357 285.481 243.47 280.606 237.72 280.709 237.83 275.584 232.893 275.71 233.001 270.272 228.813 270.416 228.911 264.791 225.536 264.98 225.632 259.043 223.132 259.251 223.203 253.188 221.64 253.413 221.68 247.163 221.055ZM317.208 311.952 311.375 319.685 304.484 312.877C303.895 312.295 303.889 311.345 304.471 310.756 305.053 310.167 306.003 310.161 306.593 310.743L312.264 316.346 310.012 316.51 314.813 310.145C315.312 309.484 316.253 309.352 316.914 309.851 317.575 310.35 317.707 311.29 317.208 311.952Z" fill="#A6A6A6"/><text fill="#BFBFBF" font-family="Arial,Arial_MSFontService,sans-serif" font-weight="700" font-stretch="condensed" font-size="27" transform="translate(172.281 184)">ODBs<tspan font-size="27" x="18.6528" y="338">PDBs</tspan></text><path d="M492.5 337.187C492.5 330.732 497.732 325.5 504.187 325.5L555.814 325.5C562.268 325.5 567.5 330.732 567.5 337.187L567.5 418.814C567.5 425.268 562.268 430.5 555.814 430.5L504.187 430.5C497.732 430.5 492.5 425.268 492.5 418.814Z" stroke="#7F7F7F" stroke-width="1.33333" stroke-miterlimit="8" fill="none" fill-rule="evenodd"/><path d="M389.5 341.484C389.5 346.999 404.946 351.469 424 351.469 443.054 351.469 458.5 346.999 458.5 341.484L458.5 389.516C458.5 395.03 443.054 399.5 424 399.5 404.946 399.5 389.5 395.03 389.5 389.516Z" fill="#F2F2F2" fill-rule="evenodd"/><path d="M389.5 341.484C389.5 335.97 404.946 331.5 424 331.5 443.054 331.5 458.5 335.97 458.5 341.484 458.5 346.999 443.054 351.469 424 351.469 404.946 351.469 389.5 346.999 389.5 341.484Z" fill="#F7F7F7" fill-rule="evenodd"/><path d="M458.5 341.484C458.5 346.999 443.054 351.469 424 351.469 404.946 351.469 389.5 346.999 389.5 341.484 389.5 335.97 404.946 331.5 424 331.5 443.054 331.5 458.5 335.97 458.5 341.484L458.5 389.516C458.5 395.03 443.054 399.5 424 399.5 404.946 399.5 389.5 395.03 389.5 389.516L389.5 341.484" stroke="#595959" stroke-width="1.33333" stroke-miterlimit="8" fill="none" fill-rule="evenodd"/><path d="M447.78 367 484.799 367 484.799 370 447.78 370ZM452.792 374.879 445.502 368.5 452.792 362.121C453.416 361.576 454.363 361.639 454.909 362.262 455.454 362.886 455.391 363.833 454.768 364.379L448.768 369.629 448.768 367.371 454.768 372.621C455.391 373.167 455.454 374.114 454.909 374.738 454.363 375.361 453.416 375.424 452.792 374.879ZM479.787 362.121 487.077 368.5 479.787 374.879C479.163 375.425 478.216 375.361 477.67 374.738 477.125 374.114 477.188 373.167 477.811 372.621L483.811 367.371 483.811 369.629 477.811 364.379C477.188 363.833 477.125 362.886 477.67 362.262 478.216 361.639 479.163 361.576 479.787 362.121Z" fill="#7F7F7F"/><path d="M44.8938-1.42324 49.5597-0.775202 54.1618 0.958921 58.5628 3.65205 62.7936 7.16691 66.669 11.4944 70.3834 16.6178 73.7637 22.4217 76.8724 28.8929 79.7212 35.9198 82.2512 43.573 84.3974 51.7158 86.2251 60.3504 87.6748 69.3637 88.6823 78.8093 89.3116 88.4997 89.4567 96.1921 86.4573 96.2487 86.3128 88.5908 86.3156 88.6597 85.6906 79.0347 85.696 79.0966 84.696 69.7216 84.7065 69.8007 83.269 60.8632 83.2825 60.9356 81.47 52.3731 81.487 52.4448 79.362 44.3823 79.3883 44.4708 76.8883 36.9083 76.9224 37.0011 74.1099 30.0636 74.1479 30.1495 71.0854 23.7745 71.1413 23.8799 67.8288 18.1924 67.9106 18.318 64.2856 13.318 64.3826 13.4382 60.6326 9.25068 60.7915 9.40378 56.729 6.02879 56.9046 6.15445 52.7171 3.59195 52.9711 3.71616 48.6586 2.09116 48.9811 2.17324 44.4811 1.54824ZM94.2402 91.0887 88 98.4979 81.4847 91.3294C80.9275 90.7163 80.9728 89.7677 81.5859 89.2105 82.1989 88.6533 83.1476 88.6986 83.7048 89.3116L89.067 95.2115 86.8097 95.2541 91.9456 89.1561C92.4792 88.5225 93.4255 88.4415 94.0592 88.9751 94.6928 89.5088 94.7738 90.4551 94.2402 91.0887Z" fill="#A6A6A6" transform="matrix(1 0 0 -1 208.5 512.5)"/><path d="M0 0 17.9679 10.3805" stroke="#A6A6A6" stroke-width="4" stroke-miterlimit="8" fill="none" fill-rule="evenodd" transform="matrix(0.997064 0.0765688 0.0765688 -0.997064 411.533 371.075)"/><path d="M410.675 370.657 429.045 380.315" stroke="#A6A6A6" stroke-width="4" stroke-miterlimit="8" fill="none" fill-rule="evenodd"/><path d="M0 0 0.20063 17.7515" stroke="#A6A6A6" stroke-width="4" stroke-miterlimit="8" fill="none" fill-rule="evenodd" transform="matrix(-0.997064 -0.0765688 -0.0765688 0.997064 431.173 361.77)"/><path d="M406.136 370.781C406.323 368.351 408.444 366.533 410.874 366.719 413.304 366.906 415.123 369.027 414.936 371.457 414.749 373.887 412.628 375.706 410.198 375.519 407.768 375.332 405.95 373.211 406.136 370.781Z" fill="#7F7F7F" fill-rule="evenodd"/><path d="M426.658 361.56C426.845 359.13 428.966 357.311 431.396 357.498 433.826 357.685 435.645 359.806 435.458 362.236 435.271 364.666 433.15 366.484 430.72 366.298 428.29 366.111 426.472 363.99 426.658 361.56Z" fill="#7F7F7F" fill-rule="evenodd"/><path d="M425.223 380.249C425.41 377.819 427.531 376 429.961 376.187 432.391 376.374 434.209 378.495 434.023 380.925 433.836 383.355 431.715 385.173 429.285 384.987 426.855 384.8 425.036 382.679 425.223 380.249Z" fill="#7F7F7F" fill-rule="evenodd"/><text font-family="Arial,Arial_MSFontService,sans-serif" font-weight="400" font-stretch="condensed" font-size="14" transform="translate(378.894 429)">Knowledge Graph<tspan font-size="14" x="-34.3333" y="16">InTaVia Data Model (IDM</tspan>-<tspan font-size="14" x="98.3333" y="16">RDF)</tspan></text><path d="M209.5 449.905C209.5 452.338 218.454 454.31 229.5 454.31 240.546 454.31 249.5 452.338 249.5 449.905L249.5 471.095C249.5 473.528 240.546 475.5 229.5 475.5 218.454 475.5 209.5 473.528 209.5 471.095Z" fill="#F2F2F2" fill-rule="evenodd"/><path d="M209.5 449.905C209.5 447.472 218.454 445.5 229.5 445.5 240.546 445.5 249.5 447.472 249.5 449.905 249.5 452.338 240.546 454.31 229.5 454.31 218.454 454.31 209.5 452.338 209.5 449.905Z" fill="#F7F7F7" fill-rule="evenodd"/><path d="M249.5 449.905C249.5 452.338 240.546 454.31 229.5 454.31 218.454 454.31 209.5 452.338 209.5 449.905 209.5 447.472 218.454 445.5 229.5 445.5 240.546 445.5 249.5 447.472 249.5 449.905L249.5 471.095C249.5 473.528 240.546 475.5 229.5 475.5 218.454 475.5 209.5 473.528 209.5 471.095L209.5 449.905" stroke="#595959" stroke-width="1.33333" stroke-miterlimit="8" fill="none" fill-rule="evenodd"/><path d="M202.5 452.905C202.5 455.338 211.454 457.31 222.5 457.31 233.546 457.31 242.5 455.338 242.5 452.905L242.5 474.095C242.5 476.528 233.546 478.5 222.5 478.5 211.454 478.5 202.5 476.528 202.5 474.095Z" fill="#F2F2F2" fill-rule="evenodd"/><path d="M202.5 452.905C202.5 450.472 211.454 448.5 222.5 448.5 233.546 448.5 242.5 450.472 242.5 452.905 242.5 455.338 233.546 457.31 222.5 457.31 211.454 457.31 202.5 455.338 202.5 452.905Z" fill="#F7F7F7" fill-rule="evenodd"/><path d="M242.5 452.905C242.5 455.338 233.546 457.31 222.5 457.31 211.454 457.31 202.5 455.338 202.5 452.905 202.5 450.472 211.454 448.5 222.5 448.5 233.546 448.5 242.5 450.472 242.5 452.905L242.5 474.095C242.5 476.528 233.546 478.5 222.5 478.5 211.454 478.5 202.5 476.528 202.5 474.095L202.5 452.905" stroke="#595959" stroke-width="1.33333" stroke-miterlimit="8" fill="none" fill-rule="evenodd"/><path d="M196.5 456.905C196.5 459.338 205.454 461.31 216.5 461.31 227.546 461.31 236.5 459.338 236.5 456.905L236.5 478.095C236.5 480.528 227.546 482.5 216.5 482.5 205.454 482.5 196.5 480.528 196.5 478.095Z" fill="#F2F2F2" fill-rule="evenodd"/><path d="M196.5 456.905C196.5 454.472 205.454 452.5 216.5 452.5 227.546 452.5 236.5 454.472 236.5 456.905 236.5 459.338 227.546 461.31 216.5 461.31 205.454 461.31 196.5 459.338 196.5 456.905Z" fill="#F7F7F7" fill-rule="evenodd"/><path d="M236.5 456.905C236.5 459.338 227.546 461.31 216.5 461.31 205.454 461.31 196.5 459.338 196.5 456.905 196.5 454.472 205.454 452.5 216.5 452.5 227.546 452.5 236.5 454.472 236.5 456.905L236.5 478.095C236.5 480.528 227.546 482.5 216.5 482.5 205.454 482.5 196.5 480.528 196.5 478.095L196.5 456.905" stroke="#595959" stroke-width="1.33333" stroke-miterlimit="8" fill="none" fill-rule="evenodd"/><path d="M190.5 204.905C190.5 207.338 199.454 209.31 210.5 209.31 221.546 209.31 230.5 207.338 230.5 204.905L230.5 226.095C230.5 228.528 221.546 230.5 210.5 230.5 199.454 230.5 190.5 228.528 190.5 226.095Z" fill="#F2F2F2" fill-rule="evenodd"/><path d="M190.5 204.905C190.5 202.472 199.454 200.5 210.5 200.5 221.546 200.5 230.5 202.472 230.5 204.905 230.5 207.338 221.546 209.31 210.5 209.31 199.454 209.31 190.5 207.338 190.5 204.905Z" fill="#F7F7F7" fill-rule="evenodd"/><path d="M230.5 204.905C230.5 207.338 221.546 209.31 210.5 209.31 199.454 209.31 190.5 207.338 190.5 204.905 190.5 202.472 199.454 200.5 210.5 200.5 221.546 200.5 230.5 202.472 230.5 204.905L230.5 226.095C230.5 228.528 221.546 230.5 210.5 230.5 199.454 230.5 190.5 228.528 190.5 226.095L190.5 204.905" stroke="#595959" stroke-width="1.33333" stroke-miterlimit="8" fill="none" fill-rule="evenodd"/><path d="M184.5 208.758C184.5 211.11 193.454 213.016 204.5 213.016 215.546 213.016 224.5 211.11 224.5 208.758L224.5 229.242C224.5 231.594 215.546 233.5 204.5 233.5 193.454 233.5 184.5 231.594 184.5 229.242Z" fill="#F2F2F2" fill-rule="evenodd"/><path d="M184.5 208.758C184.5 206.406 193.454 204.5 204.5 204.5 215.546 204.5 224.5 206.406 224.5 208.758 224.5 211.11 215.546 213.016 204.5 213.016 193.454 213.016 184.5 211.11 184.5 208.758Z" fill="#F7F7F7" fill-rule="evenodd"/><path d="M224.5 208.758C224.5 211.11 215.546 213.016 204.5 213.016 193.454 213.016 184.5 211.11 184.5 208.758 184.5 206.406 193.454 204.5 204.5 204.5 215.546 204.5 224.5 206.406 224.5 208.758L224.5 229.242C224.5 231.594 215.546 233.5 204.5 233.5 193.454 233.5 184.5 231.594 184.5 229.242L184.5 208.758" stroke="#595959" stroke-width="1.33333" stroke-miterlimit="8" fill="none" fill-rule="evenodd"/><path d="M178.5 211.905C178.5 214.338 187.454 216.31 198.5 216.31 209.546 216.31 218.5 214.338 218.5 211.905L218.5 233.095C218.5 235.528 209.546 237.5 198.5 237.5 187.454 237.5 178.5 235.528 178.5 233.095Z" fill="#F2F2F2" fill-rule="evenodd"/><path d="M178.5 211.905C178.5 209.472 187.454 207.5 198.5 207.5 209.546 207.5 218.5 209.472 218.5 211.905 218.5 214.338 209.546 216.31 198.5 216.31 187.454 216.31 178.5 214.338 178.5 211.905Z" fill="#F7F7F7" fill-rule="evenodd"/><path d="M218.5 211.905C218.5 214.338 209.546 216.31 198.5 216.31 187.454 216.31 178.5 214.338 178.5 211.905 178.5 209.472 187.454 207.5 198.5 207.5 209.546 207.5 218.5 209.472 218.5 211.905L218.5 233.095C218.5 235.528 209.546 237.5 198.5 237.5 187.454 237.5 178.5 235.528 178.5 233.095L178.5 211.905" stroke="#595959" stroke-width="1.33333" stroke-miterlimit="8" fill="none" fill-rule="evenodd"/><path d="M672.5 209.274C672.5 213.567 686.827 217.047 704.5 217.047 722.173 217.047 736.5 213.567 736.5 209.274L736.5 238.726C736.5 243.02 722.173 246.5 704.5 246.5 686.827 246.5 672.5 243.02 672.5 238.726Z" fill="#F2F2F2" fill-rule="evenodd"/><path d="M672.5 209.274C672.5 204.98 686.827 201.5 704.5 201.5 722.173 201.5 736.5 204.98 736.5 209.274 736.5 213.567 722.173 217.047 704.5 217.047 686.827 217.047 672.5 213.567 672.5 209.274Z" fill="#F7F7F7" fill-rule="evenodd"/><path d="M736.5 209.274C736.5 213.567 722.173 217.047 704.5 217.047 686.827 217.047 672.5 213.567 672.5 209.274 672.5 204.98 686.827 201.5 704.5 201.5 722.173 201.5 736.5 204.98 736.5 209.274L736.5 238.726C736.5 243.02 722.173 246.5 704.5 246.5 686.827 246.5 672.5 243.02 672.5 238.726L672.5 209.274" stroke="#595959" stroke-width="1.33333" stroke-miterlimit="8" fill="none" fill-rule="evenodd"/><text font-family="Arial,Arial_MSFontService,sans-serif" font-weight="400" font-stretch="condensed" font-size="19" transform="translate(1009.7 435)">Storytelling <tspan font-size="19" x="80.0001" y="0">suite</tspan></text><rect x="666.5" y="335.5" width="98" height="67" stroke="#7F7F7F" stroke-width="1.33333" stroke-miterlimit="8" fill="#FFFFFF"/><rect x="814.5" y="335.5" width="98" height="67" stroke="#7F7F7F" stroke-width="1.33333" stroke-miterlimit="8" fill="#FFFFFF"/><rect x="953.5" y="346.5" width="67" height="46" stroke="#A6A6A6" stroke-width="1.33333" stroke-miterlimit="8" fill="#FFFFFF"/><rect x="1056.5" y="346.5" width="67" height="46" stroke="#A6A6A6" stroke-width="1.33333" stroke-miterlimit="8" fill="#FFFFFF"/><text fill="#595959" font-family="Arial,Arial_MSFontService,sans-serif" font-weight="400" font-stretch="condensed" font-size="19" transform="translate(965.944 363)">story<tspan font-size="19" x="-0.333374" y="23">editor</tspan><tspan font-size="19" x="110.41" y="1">story</tspan><tspan font-size="19" x="105.577" y="24">viewer</tspan></text><path d="M-1.5 13.9091-1.5-1.5 211.5-1.5 211.5 15.72 208.5 15.72 208.5 0 210 1.5 0 1.5 1.5 0 1.5 13.9091ZM216.379 10.7078 210 17.9979 203.621 10.7078C203.076 10.0843 203.139 9.13666 203.762 8.59114 204.386 8.04561 205.333 8.10879 205.879 8.73224L211.129 14.7322 208.871 14.7322 214.121 8.73224C214.667 8.10879 215.614 8.04561 216.238 8.59114 216.861 9.13666 216.924 10.0843 216.379 10.7078Z" fill="#A6A6A6" transform="matrix(1 0 0 -1 752.5 418.5)"/><path d="M1023.5 359 1053.17 359 1053.17 362 1023.5 362ZM1048.16 354.121 1055.45 360.5 1048.16 366.879C1047.54 367.425 1046.59 367.361 1046.04 366.738 1045.5 366.114 1045.56 365.167 1046.18 364.621L1052.18 359.371 1052.18 361.629 1046.18 356.379C1045.56 355.833 1045.5 354.886 1046.04 354.262 1046.59 353.639 1047.54 353.576 1048.16 354.121Z" fill="#7F7F7F"/><path d="M4.92886e-06-1.5 9-1.49997 9 1.50003-4.92886e-06 1.5ZM12-1.49996 21-1.49993 21 1.50007 12 1.50004ZM24-1.49992 29.6707-1.4999 29.6706 1.5001 24 1.50008ZM24.6584-6.37878 31.9485 0.000104892 24.6584 6.37895C24.0349 6.92447 23.0873 6.86129 22.5418 6.23783 21.9963 5.61437 22.0594 4.66673 22.6829 4.12121L28.6829-1.12877 28.6829 1.12896 22.6829-4.12106C22.0595-4.66659 21.9963-5.61423 22.5418-6.23768 23.0873-6.86114 24.035-6.92431 24.6584-6.37878Z" fill="#BFBFBF" transform="matrix(-1 0 0 1 1055.45 377.5)"/><path d="M-1.5 22.4091-1.5-1.5 111.5-1.5 111.5 26.72 108.5 26.72 108.5 0 110 1.5 0 1.5 1.5 0 1.5 22.4091ZM116.379 21.7078 110 28.9979 103.621 21.7078C103.076 21.0843 103.139 20.1367 103.762 19.5911 104.386 19.0456 105.333 19.1088 105.879 19.7322L111.129 25.7322 108.871 25.7322 114.121 19.7322C114.667 19.1088 115.614 19.0456 116.238 19.5911 116.861 20.1367 116.924 21.0843 116.379 21.7078Z" fill="#A6A6A6" transform="matrix(1 0 0 -1 878.5 428.5)"/><text font-family="Arial,Arial_MSFontService,sans-serif" font-weight="700" font-stretch="condensed" font-size="16" transform="translate(749.315 225)">local storage <tspan font-weight="400" font-size="15" x="0" y="18">(IDM</tspan><tspan font-weight="400" font-size="15" x="26" y="18">-</tspan><tspan font-weight="400" font-size="15" x="30" y="18">JSON)</tspan></text><rect x="720" y="474" width="61" height="39" fill="#FFFFFF"/><text font-family="Arial,Arial_MSFontService,sans-serif" font-weight="400" font-stretch="condensed" font-size="16" transform="translate(729.246 494)">import of <tspan font-size="16" x="0" y="19">local data</tspan></text><path d="M715.5 511.5 686.5 511.5 686.5 486.563 695.563 477.5 715.5 477.5Z" fill="#FFFFFF" fill-rule="evenodd"/><path d="M695.563 477.5 693.75 484.75 686.5 486.563Z" fill="#CDCDCD" fill-rule="evenodd"/><path d="M695.563 477.5 693.75 484.75 686.5 486.563 695.563 477.5 715.5 477.5 715.5 511.5 686.5 511.5 686.5 486.563" stroke="#7F7F7F" stroke-width="1.33333" stroke-miterlimit="8" fill="none" fill-rule="evenodd"/><path d="M692 491 709.546 491" stroke="#000000" stroke-width="2" stroke-miterlimit="8" fill="none" fill-rule="evenodd"/><path d="M692 496 709.546 496" stroke="#000000" stroke-width="2" stroke-miterlimit="8" fill="none" fill-rule="evenodd"/><path d="M692 502 709.546 502" stroke="#000000" stroke-width="2" stroke-miterlimit="8" fill="none" fill-rule="evenodd"/><path d="M706 254.78 706 344.981 703 344.981 703 254.78ZM698.121 259.792 704.5 252.502 710.879 259.792C711.424 260.416 711.361 261.363 710.738 261.909 710.114 262.454 709.167 262.391 708.621 261.768L703.371 255.768 705.629 255.768 700.379 261.768C699.833 262.391 698.886 262.454 698.262 261.909 697.639 261.363 697.576 260.416 698.121 259.792ZM710.879 339.969 704.5 347.259 698.121 339.969C697.576 339.345 697.639 338.397 698.262 337.852 698.886 337.306 699.833 337.37 700.379 337.993L705.629 343.993 703.371 343.993 708.621 337.993C709.167 337.37 710.114 337.306 710.738 337.852 711.361 338.397 711.425 339.345 710.879 339.969Z" fill="#A6A6A6"/><path d="M704.5 303.5 970.587 303.5" stroke="#A6A6A6" stroke-width="3" stroke-miterlimit="8" fill="none" fill-rule="evenodd"/><path d="M830 303.5 830 346.161 827 346.161 827 303.5ZM834.879 341.148 828.5 348.439 822.121 341.148C821.576 340.525 821.639 339.577 822.262 339.032 822.886 338.486 823.833 338.55 824.379 339.173L829.629 345.173 827.371 345.173 832.621 339.173C833.167 338.55 834.114 338.486 834.738 339.032 835.361 339.577 835.425 340.525 834.879 341.148Z" fill="#A6A6A6"/><path d="M972 303.5 972 346.161 969 346.161 969 303.5ZM976.879 341.148 970.5 348.439 964.121 341.148C963.576 340.525 963.639 339.577 964.262 339.032 964.886 338.486 965.833 338.55 966.379 339.173L971.629 345.173 969.371 345.173 974.621 339.173C975.167 338.55 976.114 338.486 976.738 339.032 977.361 339.577 977.425 340.525 976.879 341.148Z" fill="#A6A6A6"/><path d="M1086 303.5 1086 346.161 1083 346.161 1083 303.5ZM1090.88 341.148 1084.5 348.439 1078.12 341.148C1077.58 340.525 1077.64 339.577 1078.26 339.032 1078.89 338.486 1079.83 338.55 1080.38 339.173L1085.63 345.173 1083.37 345.173 1088.62 339.173C1089.17 338.55 1090.11 338.486 1090.74 339.032 1091.36 339.577 1091.42 340.525 1090.88 341.148Z" fill="#A6A6A6"/><path d="M970.5 303.5 1084.96 303.5" stroke="#A6A6A6" stroke-width="3" stroke-miterlimit="8" fill="none" fill-rule="evenodd"/><path d="M1.5-2.40278e-06 1.5001 63.261-1.4999 63.261-1.5 2.40278e-06ZM6.37896 58.2487 0.000104582 65.5389-6.37877 58.2488C-6.9243 57.6253-6.86112 56.6777-6.23767 56.1321-5.61421 55.5866-4.66657 55.6498-4.12104 56.2732L1.12896 62.2732-1.12876 62.2732 4.12123 56.2732C4.66675 55.6498 5.61439 55.5866 6.23785 56.1321 6.8613 56.6776 6.92448 57.6253 6.37896 58.2487Z" fill="#A6A6A6" transform="matrix(1 0 0 -1 704.5 471.041)"/><text font-family="Arial,Arial_MSFontService,sans-serif" font-weight="400" font-stretch="condensed" font-size="19" transform="translate(833.895 376)">VA studio<tspan font-size="19" x="-151.339" y="-8">Data </tspan><tspan font-size="19" x="-114.672" y="-8">Cura</tspan><tspan font-size="19" x="-81.5056" y="-8">-</tspan><tspan font-size="19" x="-151.339" y="15">tion Lab</tspan><tspan font-size="15" x="-230.008" y="25">provides</tspan><tspan font-size="15" x="-236.341" y="43">IDM</tspan><tspan font-size="15" x="-214.341" y="43">-</tspan><tspan font-size="15" x="-210.341" y="43">JSON</tspan></text><path d="M1.95813e-06-1.5 78.144-1.4999 78.144 1.5001-1.95813e-06 1.5ZM73.1317-6.37877 80.4218 0.000104897 73.1317 6.37896C72.5082 6.92448 71.5606 6.86131 71.0151 6.23785 70.4695 5.61439 70.5327 4.66675 71.1562 4.12123L77.1562-1.12876 77.1562 1.12897 71.1562-4.12104C70.5327-4.66657 70.4696-5.61421 71.0151-6.23766 71.5606-6.86112 72.5082-6.92429 73.1317-6.37877Z" fill="#A6A6A6" transform="matrix(-1 0 0 1 666.924 366.5)"/><path d="M583.5 376 660.322 376 660.322 379 583.5 379ZM655.309 371.121 662.599 377.5 655.309 383.879C654.686 384.425 653.738 384.361 653.193 383.738 652.647 383.114 652.71 382.167 653.334 381.621L659.334 376.371 659.334 378.629 653.334 373.379C652.71 372.833 652.647 371.886 653.193 371.262 653.738 370.639 654.686 370.576 655.309 371.121Z" fill="#A6A6A6"/><path d="M530.5 643.5 530.5 546.5 673.5 546.5 673.5 643.5" stroke="#A6A6A6" stroke-miterlimit="8" stroke-dasharray="8 3" fill="none" fill-rule="evenodd"/><path d="M539.5 353.221C539.5 346.196 545.196 340.5 552.221 340.5L570.779 340.5C577.805 340.5 583.5 346.196 583.5 353.221L583.5 389.779C583.5 396.805 577.805 402.5 570.779 402.5L552.221 402.5C545.196 402.5 539.5 396.805 539.5 389.779Z" stroke="#7F7F7F" stroke-width="1.33333" stroke-miterlimit="8" fill="#FFFFFF" fill-rule="evenodd"/><text fill="#7F7F7F" font-family="Arial,Arial_MSFontService,sans-serif" font-weight="400" font-stretch="condensed" font-size="19" transform="translate(550.199 371)">grlc<tspan fill="#000000" font-size="19" x="0" y="23">API</tspan><tspan font-size="16" x="-43.2053" y="-13">SPA</tspan><tspan font-size="16" x="-43.9319" y="6">RQL</tspan><tspan font-size="16" x="-41.4319" y="25">end</tspan><tspan font-size="16" x="-44.6786" y="44">point</tspan></text><path d="M3.21703e-06-1.5 46.6721-1.4999 46.6721 1.5001-3.21703e-06 1.5ZM41.6599-6.37878 48.95 0.000105329 41.6599 6.37895C41.0364 6.92448 40.0888 6.8613 39.5432 6.23784 38.9977 5.61439 39.0609 4.66674 39.6844 4.12122L45.6844-1.12877 45.6844 1.12896 39.6844-4.12105C39.0609-4.66657 38.9978-5.61422 39.5433-6.23767 40.0888-6.86113 41.0364-6.9243 41.6599-6.37878Z" fill="#A6A6A6" transform="matrix(-1 0 0 1 814.452 363.5)"/><path d="M764.5 375 812.661 375 812.661 378 764.5 378ZM807.648 370.121 814.939 376.5 807.648 382.879C807.025 383.425 806.077 383.361 805.532 382.738 804.986 382.114 805.049 381.167 805.673 380.621L811.673 375.371 811.673 377.629 805.673 372.379C805.049 371.833 804.986 370.886 805.532 370.262 806.077 369.639 807.025 369.576 807.648 370.121Z" fill="#A6A6A6"/><path d="M270.5 350.944C270.5 342.415 277.415 335.5 285.944 335.5L331.056 335.5C339.586 335.5 346.5 342.415 346.5 350.944L346.5 384.056C346.5 392.586 339.586 399.5 331.056 399.5L285.944 399.5C277.415 399.5 270.5 392.586 270.5 384.056Z" stroke="#7F7F7F" stroke-width="1.33333" stroke-miterlimit="8" fill="#FFFFFF" fill-rule="evenodd"/><path d="M346.5 367 378.936 367 378.936 370 346.5 370ZM373.924 362.121 381.214 368.5 373.924 374.879C373.3 375.425 372.353 375.361 371.807 374.738 371.262 374.114 371.325 373.167 371.948 372.621L377.948 367.371 377.948 369.629 371.948 364.379C371.325 363.833 371.262 362.886 371.807 362.262 372.353 361.639 373.3 361.576 373.924 362.121Z" fill="#7F7F7F"/><text fill="#7F7F7F" font-family="Arial,Arial_MSFontService,sans-serif" font-weight="400" font-stretch="condensed" font-size="15" transform="translate(285.1 356)">prefect<tspan fill="#000000" font-size="15" x="0" y="18">workflow </tspan><tspan fill="#000000" font-size="15" x="0" y="36">component</tspan><tspan fill="#000000" font-size="14" x="192.661" y="-125">mongo DB</tspan></text><path d="M2.27992-1.5 5.27992-1.5 5.27992 1.5 2.27992 1.5ZM8.27992-1.49999 11.2799-1.49999 11.2799 1.50001 8.27992 1.50001ZM14.2799-1.49999 17.2799-1.49998 17.2799 1.50002 14.2799 1.50001ZM20.2799-1.49998 23.2799-1.49998 23.2799 1.50002 20.2799 1.50002ZM26.2799-1.49998 29.2799-1.49997 29.2799 1.50003 26.2799 1.50002ZM32.2799-1.49997 35.2799-1.49997 35.2799 1.50003 32.2799 1.50003ZM38.2799-1.49997 41.2799-1.49996 41.2799 1.50004 38.2799 1.50003ZM44.2799-1.49996 47.2799-1.49996 47.2799 1.50004 44.2799 1.50004ZM50.2799-1.49996 53.2799-1.49995 53.2799 1.50005 50.2799 1.50004ZM56.2799-1.49995 59.2799-1.49995 59.2799 1.50005 56.2799 1.50005ZM62.2799-1.49995 65.2799-1.49994 65.2799 1.50006 62.2799 1.50005ZM68.2799-1.49994 71.2799-1.49994 71.2799 1.50006 68.2799 1.50006ZM74.2799-1.49994 77.2799-1.49993 77.2799 1.50007 74.2799 1.50006ZM80.2799-1.49993 83.2799-1.49993 83.2799 1.50007 80.2799 1.50007ZM86.2799-1.49992 89.2799-1.49992 89.2799 1.50008 86.2799 1.50008ZM92.2799-1.49992 95.2799-1.49992 95.2799 1.50008 92.2799 1.50008ZM98.2799-1.49991 101.28-1.49991 101.28 1.50009 98.2799 1.50009ZM104.28-1.49991 107.28-1.49991 107.28 1.50009 104.28 1.50009ZM110.28-1.4999 113.28-1.4999 113.28 1.5001 110.28 1.5001ZM116.28-1.4999 118.248-1.4999 118.248 1.5001 116.28 1.5001ZM7.29224 6.37887 0.00211143-1.78918e-07 7.29225-6.37886C7.9157-6.92438 8.86335-6.8612 9.40887-6.23775 9.95439-5.61429 9.89122-4.66665 9.26776-4.12113L3.26776 1.12887 3.26776-1.12886 9.26775 4.12114C9.89121 4.66667 9.95438 5.61431 9.40886 6.23777 8.86334 6.86122 7.91569 6.9244 7.29224 6.37887ZM113.236-6.37877 120.526 0.000104174 113.236 6.37896C112.613 6.92449 111.665 6.86131 111.119 6.23785 110.574 5.6144 110.637 4.66675 111.261 4.12123L117.261-1.12876 117.261 1.12897 111.261-4.12104C110.637-4.66656 110.574-5.6142 111.119-6.23766 111.665-6.86111 112.613-6.92429 113.236-6.37877Z" fill="#7F7F7F" transform="matrix(-1 0 0 1 666.028 225.5)"/><path d="M432.096 607.875 423.652 608.064 415.405 607.493 407.353 606.351 399.546 604.574 392.052 602.225 384.936 599.302 378.195 595.867 371.957 591.921 366.163 587.528 360.865 582.677 356.199 577.372 352.173 571.748 348.775 565.786 346.143 559.431 344.283 552.886 343.193 546.028 343.107 544.159 346.104 544.021 346.186 545.806 346.169 545.64 347.231 552.327 347.193 552.152 349.005 558.527 348.948 558.364 351.511 564.551 351.428 564.382 354.741 570.195 354.657 570.064 358.595 575.564 358.501 575.447 363.064 580.634 362.951 580.519 368.138 585.269 368.031 585.18 373.719 589.492 373.615 589.42 379.74 593.295 379.618 593.226 386.243 596.601 386.132 596.55 393.132 599.425 393.011 599.381 400.386 601.694 400.271 601.662 407.958 603.412 407.836 603.39 415.773 604.515 415.666 604.504 423.791 605.066 423.654 605.063 432.029 604.875ZM338.464 549.391 344.5 541.815 351.208 548.803C351.782 549.401 351.763 550.35 351.165 550.924 350.567 551.497 349.618 551.478 349.044 550.88L343.523 545.129 345.778 545.025 340.811 551.26C340.294 551.908 339.351 552.015 338.703 551.499 338.055 550.983 337.948 550.039 338.464 549.391Z" fill="#BFBFBF"/><path d="M1.5 0 1.5 3-1.5 3-1.5 0ZM1.5 6 1.5 9-1.5 9-1.5 6ZM1.5 12 1.5 15-1.5 15-1.5 12ZM1.5 18 1.5 18.72-1.5 18.72-1.5 18ZM6.37886 13.7078 0 20.9979-6.37886 13.7078C-6.92439 13.0843-6.86121 12.1367-6.23776 11.5911-5.6143 11.0456-4.66666 11.1088-4.12114 11.7322L1.12887 17.7322-1.12887 17.7322 4.12114 11.7322C4.66666 11.1088 5.6143 11.0456 6.23776 11.5911 6.86121 12.1367 6.92439 13.0843 6.37886 13.7078Z" fill="#A6A6A6" transform="matrix(1 0 0 -1 704.5 544.5)"/><path d="M706.812 548.446 706.92 551.444 703.922 551.552 703.814 548.554ZM706.947 554.588 706.763 557.582 703.768 557.397 703.953 554.403ZM706.406 560.695 705.95 563.66 702.985 563.204 703.441 560.239ZM705.184 566.717 704.62 568.887 704.306 569.739 701.492 568.698 701.781 567.917 701.736 568.06 702.281 565.963ZM703.265 572.552 702.884 573.581 702.018 575.42 699.304 574.14 700.143 572.36 700.093 572.48 700.451 571.512ZM700.662 578.251 699.136 580.834 696.553 579.308 698.079 576.725ZM697.406 583.47 695.619 585.879 693.21 584.091 694.997 581.682ZM693.434 588.22 691.332 590.361 689.191 588.26 691.293 586.119ZM689.231 592.502 688.434 593.314 686.788 594.576 684.963 592.195 686.525 590.997 686.367 591.137 687.09 590.401ZM684.273 596.465 681.724 598.048 680.141 595.5 682.69 593.917ZM678.959 599.577 676.252 600.871 674.958 598.165 677.664 596.87ZM673.326 601.999 671.129 602.811 670.327 603.009 669.608 600.096 670.328 599.919 670.167 599.968 672.285 599.185ZM667.414 603.728 666.168 604.035 664.335 604.314 663.885 601.348 665.65 601.08 665.516 601.106 666.695 600.815ZM661.369 604.764 661.073 604.809 658.192 604.894 658.104 601.895 660.893 601.813 660.712 601.83 660.919 601.798ZM662.039 609.662 654.565 603.5 661.664 596.91C662.271 596.346 663.22 596.381 663.784 596.988 664.348 597.596 664.312 598.545 663.705 599.108L657.862 604.532 657.796 602.276 663.947 607.347C664.587 607.874 664.678 608.819 664.151 609.458 663.624 610.098 662.678 610.189 662.039 609.662Z" fill="#A6A6A6"/><path d="M432.504 605 543.494 605.302 543.486 608.302 432.496 608ZM538.495 600.409 545.768 606.808 538.46 613.167C537.835 613.711 536.888 613.645 536.344 613.02 535.8 612.395 535.866 611.448 536.491 610.904L542.505 605.67 542.499 607.928 536.513 602.662C535.891 602.114 535.831 601.167 536.378 600.545 536.925 599.923 537.873 599.862 538.495 600.409Z" fill="#BFBFBF"/></g></svg>